G04 #@! TF.GenerationSoftware,KiCad,Pcbnew,7.0.11+dfsg-1build4*
G04 #@! TF.CreationDate,2026-10-08T20:40:16+02:00*
G04 #@! TF.ProjectId,ModuleV450_Bolt123_V1,4d6f6475-6c65-4563-9435-305f426f6c74,rev?*
G04 #@! TF.SameCoordinates,Original*
G04 #@! TF.FileFunction,Soldermask,Top*
G04 #@! TF.FilePolarity,Negative*
%FSLAX46Y46*%
G04 Gerber Fmt 4.6, Leading zero omitted, Abs format (unit mm)*
G04 Created by KiCad (PCBNEW 7.0.11+dfsg-1build4) date 2026-10-08 20:40:16*
%MOMM*%
%LPD*%
G01*
G04 APERTURE LIST*
G04 Aperture macros list*
%AMRoundRect*
0 Rectangle with rounded corners*
0 $1 Rounding radius*
0 $2 $3 $4 $5 $6 $7 $8 $9 X,Y pos of 4 corners*
0 Add a 4 corners polygon primitive as box body*
4,1,4,$2,$3,$4,$5,$6,$7,$8,$9,$2,$3,0*
0 Add four circle primitives for the rounded corners*
1,1,$1+$1,$2,$3*
1,1,$1+$1,$4,$5*
1,1,$1+$1,$6,$7*
1,1,$1+$1,$8,$9*
0 Add four rect primitives between the rounded corners*
20,1,$1+$1,$2,$3,$4,$5,0*
20,1,$1+$1,$4,$5,$6,$7,0*
20,1,$1+$1,$6,$7,$8,$9,0*
20,1,$1+$1,$8,$9,$2,$3,0*%
G04 Aperture macros list end*
%ADD10RoundRect,0.250000X0.450000X-0.262500X0.450000X0.262500X-0.450000X0.262500X-0.450000X-0.262500X0*%
%ADD11RoundRect,0.250000X0.262500X0.450000X-0.262500X0.450000X-0.262500X-0.450000X0.262500X-0.450000X0*%
%ADD12RoundRect,0.250000X-0.712500X-2.475000X0.712500X-2.475000X0.712500X2.475000X-0.712500X2.475000X0*%
%ADD13RoundRect,0.250000X-0.362500X-1.425000X0.362500X-1.425000X0.362500X1.425000X-0.362500X1.425000X0*%
%ADD14RoundRect,0.250000X0.475000X-0.250000X0.475000X0.250000X-0.475000X0.250000X-0.475000X-0.250000X0*%
%ADD15RoundRect,0.250000X-0.262500X-0.450000X0.262500X-0.450000X0.262500X0.450000X-0.262500X0.450000X0*%
%ADD16C,1.000000*%
%ADD17C,15.000000*%
%ADD18RoundRect,0.243750X-0.243750X-0.456250X0.243750X-0.456250X0.243750X0.456250X-0.243750X0.456250X0*%
%ADD19R,1.700000X1.700000*%
%ADD20O,1.700000X1.700000*%
%ADD21RoundRect,0.200000X-0.200000X-0.600000X0.200000X-0.600000X0.200000X0.600000X-0.200000X0.600000X0*%
%ADD22RoundRect,0.250001X-0.799999X-1.249999X0.799999X-1.249999X0.799999X1.249999X-0.799999X1.249999X0*%
%ADD23RoundRect,0.150000X0.662500X0.150000X-0.662500X0.150000X-0.662500X-0.150000X0.662500X-0.150000X0*%
%ADD24RoundRect,0.150000X-0.587500X-0.150000X0.587500X-0.150000X0.587500X0.150000X-0.587500X0.150000X0*%
%ADD25RoundRect,0.150000X0.150000X-0.825000X0.150000X0.825000X-0.150000X0.825000X-0.150000X-0.825000X0*%
%ADD26RoundRect,0.250000X-1.000000X-0.900000X1.000000X-0.900000X1.000000X0.900000X-1.000000X0.900000X0*%
%ADD27RoundRect,0.243750X0.243750X0.456250X-0.243750X0.456250X-0.243750X-0.456250X0.243750X-0.456250X0*%
%ADD28RoundRect,0.150000X0.825000X0.150000X-0.825000X0.150000X-0.825000X-0.150000X0.825000X-0.150000X0*%
G04 APERTURE END LIST*
D10*
G04 #@! TO.C,R23B*
X108000000Y-93912500D03*
X108000000Y-92087500D03*
G04 #@! TD*
D11*
G04 #@! TO.C,R37*
X160912500Y-112000000D03*
X159087500Y-112000000D03*
G04 #@! TD*
D12*
G04 #@! TO.C,F1*
X70112500Y-87700000D03*
X76887500Y-87700000D03*
G04 #@! TD*
D13*
G04 #@! TO.C,R18*
X115037500Y-111500000D03*
X120962500Y-111500000D03*
G04 #@! TD*
D14*
G04 #@! TO.C,C1*
X85000000Y-103950000D03*
X85000000Y-102050000D03*
G04 #@! TD*
D13*
G04 #@! TO.C,R13*
X145037500Y-96100000D03*
X150962500Y-96100000D03*
G04 #@! TD*
D10*
G04 #@! TO.C,R2*
X101500000Y-94912500D03*
X101500000Y-93087500D03*
G04 #@! TD*
D15*
G04 #@! TO.C,R30*
X97087500Y-105500000D03*
X98912500Y-105500000D03*
G04 #@! TD*
D10*
G04 #@! TO.C,R31*
X102000000Y-102412500D03*
X102000000Y-100587500D03*
G04 #@! TD*
D11*
G04 #@! TO.C,R36*
X165412500Y-93500000D03*
X163587500Y-93500000D03*
G04 #@! TD*
D15*
G04 #@! TO.C,R23*
X72087500Y-114300000D03*
X73912500Y-114300000D03*
G04 #@! TD*
D13*
G04 #@! TO.C,R11*
X125037500Y-96100000D03*
X130962500Y-96100000D03*
G04 #@! TD*
D16*
G04 #@! TO.C,BAT-*
X177400000Y-100000000D03*
X177826275Y-97856973D03*
X177826275Y-102143027D03*
X179040203Y-96040203D03*
X179040203Y-103959797D03*
X180856973Y-94826275D03*
X180856973Y-105173725D03*
X183000000Y-94400000D03*
D17*
X183000000Y-100000000D03*
D16*
X183000000Y-105600000D03*
X185143027Y-94826275D03*
X185143027Y-105173725D03*
X186959797Y-96040203D03*
X186959797Y-103959797D03*
X188173725Y-97856973D03*
X188173725Y-102143027D03*
X188600000Y-100000000D03*
G04 #@! TD*
D13*
G04 #@! TO.C,R20*
X135037500Y-111500000D03*
X140962500Y-111500000D03*
G04 #@! TD*
G04 #@! TO.C,R7*
X125037500Y-88500000D03*
X130962500Y-88500000D03*
G04 #@! TD*
G04 #@! TO.C,R15*
X125037500Y-103900000D03*
X130962500Y-103900000D03*
G04 #@! TD*
D18*
G04 #@! TO.C,D3*
X106062500Y-112500000D03*
X107937500Y-112500000D03*
G04 #@! TD*
D11*
G04 #@! TO.C,R35*
X165412500Y-96000000D03*
X163587500Y-96000000D03*
G04 #@! TD*
D15*
G04 #@! TO.C,R34*
X77087500Y-103000000D03*
X78912500Y-103000000D03*
G04 #@! TD*
D19*
G04 #@! TO.C,UPDI1*
X86000000Y-93500000D03*
D20*
X88540000Y-93500000D03*
X91080000Y-93500000D03*
G04 #@! TD*
D13*
G04 #@! TO.C,R12*
X135037500Y-96100000D03*
X140962500Y-96100000D03*
G04 #@! TD*
D11*
G04 #@! TO.C,R1*
X98912500Y-103000000D03*
X97087500Y-103000000D03*
G04 #@! TD*
D10*
G04 #@! TO.C,R33*
X106000000Y-102412500D03*
X106000000Y-100587500D03*
G04 #@! TD*
D21*
G04 #@! TO.C,TX1*
X81375000Y-110000000D03*
X82625000Y-110000000D03*
D22*
X78825000Y-112900000D03*
X85175000Y-112900000D03*
G04 #@! TD*
D13*
G04 #@! TO.C,R14*
X115037500Y-103900000D03*
X120962500Y-103900000D03*
G04 #@! TD*
D10*
G04 #@! TO.C,R32*
X106000000Y-97912500D03*
X106000000Y-96087500D03*
G04 #@! TD*
D23*
G04 #@! TO.C,U1*
X94187500Y-112135000D03*
X94187500Y-110865000D03*
X87812500Y-110865000D03*
X87812500Y-112135000D03*
G04 #@! TD*
D16*
G04 #@! TO.C,BAT+*
X54400000Y-100000000D03*
X54826275Y-97856973D03*
X54826275Y-102143027D03*
X56040203Y-96040203D03*
X56040203Y-103959797D03*
X57856973Y-94826275D03*
X57856973Y-105173725D03*
X60000000Y-94400000D03*
D17*
X60000000Y-100000000D03*
D16*
X60000000Y-105600000D03*
X62143027Y-94826275D03*
X62143027Y-105173725D03*
X63959797Y-96040203D03*
X63959797Y-103959797D03*
X65173725Y-97856973D03*
X65173725Y-102143027D03*
X65600000Y-100000000D03*
G04 #@! TD*
D24*
G04 #@! TO.C,D1*
X96562500Y-93050000D03*
X96562500Y-94950000D03*
X98437500Y-94000000D03*
G04 #@! TD*
D15*
G04 #@! TO.C,R5*
X97087500Y-100500000D03*
X98912500Y-100500000D03*
G04 #@! TD*
D13*
G04 #@! TO.C,R6*
X115037500Y-88500000D03*
X120962500Y-88500000D03*
G04 #@! TD*
G04 #@! TO.C,R21*
X145037500Y-111500000D03*
X150962500Y-111500000D03*
G04 #@! TD*
D25*
G04 #@! TO.C,U2*
X87190000Y-105475000D03*
X88460000Y-105475000D03*
X89730000Y-105475000D03*
X91000000Y-105475000D03*
X92270000Y-105475000D03*
X93540000Y-105475000D03*
X94810000Y-105475000D03*
X94810000Y-100525000D03*
X93540000Y-100525000D03*
X92270000Y-100525000D03*
X91000000Y-100525000D03*
X89730000Y-100525000D03*
X88460000Y-100525000D03*
X87190000Y-100525000D03*
G04 #@! TD*
D13*
G04 #@! TO.C,R16*
X135037500Y-103900000D03*
X140962500Y-103900000D03*
G04 #@! TD*
D26*
G04 #@! TO.C,D2*
X77850000Y-94000000D03*
X82150000Y-94000000D03*
G04 #@! TD*
D27*
G04 #@! TO.C,D4*
X78937500Y-100500000D03*
X77062500Y-100500000D03*
G04 #@! TD*
D28*
G04 #@! TO.C,Q1*
X162475000Y-101905000D03*
X162475000Y-100635000D03*
X162475000Y-99365000D03*
X162475000Y-98095000D03*
X157525000Y-98095000D03*
X157525000Y-99365000D03*
X157525000Y-100635000D03*
X157525000Y-101905000D03*
G04 #@! TD*
D13*
G04 #@! TO.C,R10*
X115037500Y-96100000D03*
X120962500Y-96100000D03*
G04 #@! TD*
D21*
G04 #@! TO.C,RX1*
X99875000Y-110000000D03*
X101125000Y-110000000D03*
D22*
X97325000Y-112900000D03*
X103675000Y-112900000D03*
G04 #@! TD*
D13*
G04 #@! TO.C,R19*
X125037500Y-111500000D03*
X130962500Y-111500000D03*
G04 #@! TD*
D14*
G04 #@! TO.C,C2*
X82600000Y-103950000D03*
X82600000Y-102050000D03*
G04 #@! TD*
D13*
G04 #@! TO.C,R17*
X145037500Y-103900000D03*
X150962500Y-103900000D03*
G04 #@! TD*
G04 #@! TO.C,R8*
X135037500Y-88500000D03*
X140962500Y-88500000D03*
G04 #@! TD*
G04 #@! TO.C,R9*
X145037500Y-88500000D03*
X150962500Y-88500000D03*
G04 #@! TD*
M02*
