G04 #@! TF.GenerationSoftware,KiCad,Pcbnew,7.0.11+dfsg-1build4*
G04 #@! TF.CreationDate,2026-10-08T20:40:16+02:00*
G04 #@! TF.ProjectId,ModuleV450_Bolt123_V1,4d6f6475-6c65-4563-9435-305f426f6c74,rev?*
G04 #@! TF.SameCoordinates,Original*
G04 #@! TF.FileFunction,Copper,L1,Top*
G04 #@! TF.FilePolarity,Positive*
%FSLAX46Y46*%
G04 Gerber Fmt 4.6, Leading zero omitted, Abs format (unit mm)*
G04 Created by KiCad (PCBNEW 7.0.11+dfsg-1build4) date 2026-10-08 20:40:16*
%MOMM*%
%LPD*%
G01*
G04 APERTURE LIST*
G04 Aperture macros list*
%AMRoundRect*
0 Rectangle with rounded corners*
0 $1 Rounding radius*
0 $2 $3 $4 $5 $6 $7 $8 $9 X,Y pos of 4 corners*
0 Add a 4 corners polygon primitive as box body*
4,1,4,$2,$3,$4,$5,$6,$7,$8,$9,$2,$3,0*
0 Add four circle primitives for the rounded corners*
1,1,$1+$1,$2,$3*
1,1,$1+$1,$4,$5*
1,1,$1+$1,$6,$7*
1,1,$1+$1,$8,$9*
0 Add four rect primitives between the rounded corners*
20,1,$1+$1,$2,$3,$4,$5,0*
20,1,$1+$1,$4,$5,$6,$7,0*
20,1,$1+$1,$6,$7,$8,$9,0*
20,1,$1+$1,$8,$9,$2,$3,0*%
G04 Aperture macros list end*
G04 #@! TA.AperFunction,SMDPad,CuDef*
%ADD10RoundRect,0.250000X0.450000X-0.262500X0.450000X0.262500X-0.450000X0.262500X-0.450000X-0.262500X0*%
G04 #@! TD*
G04 #@! TA.AperFunction,SMDPad,CuDef*
%ADD11RoundRect,0.250000X0.262500X0.450000X-0.262500X0.450000X-0.262500X-0.450000X0.262500X-0.450000X0*%
G04 #@! TD*
G04 #@! TA.AperFunction,SMDPad,CuDef*
%ADD12RoundRect,0.250000X-0.712500X-2.475000X0.712500X-2.475000X0.712500X2.475000X-0.712500X2.475000X0*%
G04 #@! TD*
G04 #@! TA.AperFunction,SMDPad,CuDef*
%ADD13RoundRect,0.250000X-0.362500X-1.425000X0.362500X-1.425000X0.362500X1.425000X-0.362500X1.425000X0*%
G04 #@! TD*
G04 #@! TA.AperFunction,SMDPad,CuDef*
%ADD14RoundRect,0.250000X0.475000X-0.250000X0.475000X0.250000X-0.475000X0.250000X-0.475000X-0.250000X0*%
G04 #@! TD*
G04 #@! TA.AperFunction,SMDPad,CuDef*
%ADD15RoundRect,0.250000X-0.262500X-0.450000X0.262500X-0.450000X0.262500X0.450000X-0.262500X0.450000X0*%
G04 #@! TD*
G04 #@! TA.AperFunction,ComponentPad*
%ADD16C,1.000000*%
G04 #@! TD*
G04 #@! TA.AperFunction,ComponentPad*
%ADD17C,15.000000*%
G04 #@! TD*
G04 #@! TA.AperFunction,SMDPad,CuDef*
%ADD18RoundRect,0.243750X-0.243750X-0.456250X0.243750X-0.456250X0.243750X0.456250X-0.243750X0.456250X0*%
G04 #@! TD*
G04 #@! TA.AperFunction,ComponentPad*
%ADD19R,1.700000X1.700000*%
G04 #@! TD*
G04 #@! TA.AperFunction,ComponentPad*
%ADD20O,1.700000X1.700000*%
G04 #@! TD*
G04 #@! TA.AperFunction,SMDPad,CuDef*
%ADD21RoundRect,0.200000X-0.200000X-0.600000X0.200000X-0.600000X0.200000X0.600000X-0.200000X0.600000X0*%
G04 #@! TD*
G04 #@! TA.AperFunction,SMDPad,CuDef*
%ADD22RoundRect,0.250001X-0.799999X-1.249999X0.799999X-1.249999X0.799999X1.249999X-0.799999X1.249999X0*%
G04 #@! TD*
G04 #@! TA.AperFunction,SMDPad,CuDef*
%ADD23RoundRect,0.150000X0.662500X0.150000X-0.662500X0.150000X-0.662500X-0.150000X0.662500X-0.150000X0*%
G04 #@! TD*
G04 #@! TA.AperFunction,SMDPad,CuDef*
%ADD24RoundRect,0.150000X-0.587500X-0.150000X0.587500X-0.150000X0.587500X0.150000X-0.587500X0.150000X0*%
G04 #@! TD*
G04 #@! TA.AperFunction,SMDPad,CuDef*
%ADD25RoundRect,0.150000X0.150000X-0.825000X0.150000X0.825000X-0.150000X0.825000X-0.150000X-0.825000X0*%
G04 #@! TD*
G04 #@! TA.AperFunction,SMDPad,CuDef*
%ADD26RoundRect,0.250000X-1.000000X-0.900000X1.000000X-0.900000X1.000000X0.900000X-1.000000X0.900000X0*%
G04 #@! TD*
G04 #@! TA.AperFunction,SMDPad,CuDef*
%ADD27RoundRect,0.243750X0.243750X0.456250X-0.243750X0.456250X-0.243750X-0.456250X0.243750X-0.456250X0*%
G04 #@! TD*
G04 #@! TA.AperFunction,SMDPad,CuDef*
%ADD28RoundRect,0.150000X0.825000X0.150000X-0.825000X0.150000X-0.825000X-0.150000X0.825000X-0.150000X0*%
G04 #@! TD*
G04 #@! TA.AperFunction,ViaPad*
%ADD29C,0.700000*%
G04 #@! TD*
G04 #@! TA.AperFunction,Conductor*
%ADD30C,0.500000*%
G04 #@! TD*
G04 #@! TA.AperFunction,Conductor*
%ADD31C,0.800000*%
G04 #@! TD*
G04 #@! TA.AperFunction,Conductor*
%ADD32C,1.200000*%
G04 #@! TD*
G04 #@! TA.AperFunction,Conductor*
%ADD33C,0.300000*%
G04 #@! TD*
G04 APERTURE END LIST*
D10*
G04 #@! TO.P,R23B,1*
G04 #@! TO.N,ENABLE*
X108000000Y-93912500D03*
G04 #@! TO.P,R23B,2*
G04 #@! TO.N,PA3*
X108000000Y-92087500D03*
G04 #@! TD*
D11*
G04 #@! TO.P,R37,1*
G04 #@! TO.N,LED_R*
X160912500Y-112000000D03*
G04 #@! TO.P,R37,2*
G04 #@! TO.N,DRAIN*
X159087500Y-112000000D03*
G04 #@! TD*
D12*
G04 #@! TO.P,F1,1*
G04 #@! TO.N,BAT+*
X70112500Y-87700000D03*
G04 #@! TO.P,F1,2*
G04 #@! TO.N,VCC*
X76887500Y-87700000D03*
G04 #@! TD*
D13*
G04 #@! TO.P,R18,1*
G04 #@! TO.N,VCC*
X115037500Y-111500000D03*
G04 #@! TO.P,R18,2*
G04 #@! TO.N,S4_1*
X120962500Y-111500000D03*
G04 #@! TD*
D14*
G04 #@! TO.P,C1,1*
G04 #@! TO.N,VCC*
X85000000Y-103950000D03*
G04 #@! TO.P,C1,2*
G04 #@! TO.N,GND*
X85000000Y-102050000D03*
G04 #@! TD*
D13*
G04 #@! TO.P,R13,1*
G04 #@! TO.N,S2_3*
X145037500Y-96100000D03*
G04 #@! TO.P,R13,2*
G04 #@! TO.N,DRAIN*
X150962500Y-96100000D03*
G04 #@! TD*
D10*
G04 #@! TO.P,R2,1*
G04 #@! TO.N,REF_EN*
X101500000Y-94912500D03*
G04 #@! TO.P,R2,2*
G04 #@! TO.N,VREF*
X101500000Y-93087500D03*
G04 #@! TD*
D15*
G04 #@! TO.P,R30,1*
G04 #@! TO.N,GND*
X97087500Y-105500000D03*
G04 #@! TO.P,R30,2*
G04 #@! TO.N,RXD0*
X98912500Y-105500000D03*
G04 #@! TD*
D10*
G04 #@! TO.P,R31,1*
G04 #@! TO.N,PA3*
X102000000Y-102412500D03*
G04 #@! TO.P,R31,2*
G04 #@! TO.N,GND*
X102000000Y-100587500D03*
G04 #@! TD*
D11*
G04 #@! TO.P,R36,1*
G04 #@! TO.N,GND*
X165412500Y-93500000D03*
G04 #@! TO.P,R36,2*
G04 #@! TO.N,GATE*
X163587500Y-93500000D03*
G04 #@! TD*
D15*
G04 #@! TO.P,R23,1*
G04 #@! TO.N,ENABLE*
X72087500Y-114300000D03*
G04 #@! TO.P,R23,2*
G04 #@! TO.N,PA3*
X73912500Y-114300000D03*
G04 #@! TD*
D13*
G04 #@! TO.P,R11,1*
G04 #@! TO.N,S2_1*
X125037500Y-96100000D03*
G04 #@! TO.P,R11,2*
G04 #@! TO.N,S2_2*
X130962500Y-96100000D03*
G04 #@! TD*
D16*
G04 #@! TO.P,BAT-,1*
G04 #@! TO.N,GND*
X177400000Y-100000000D03*
X177826275Y-97856973D03*
X177826275Y-102143027D03*
X179040203Y-96040203D03*
X179040203Y-103959797D03*
X180856973Y-94826275D03*
X180856973Y-105173725D03*
X183000000Y-94400000D03*
D17*
X183000000Y-100000000D03*
D16*
X183000000Y-105600000D03*
X185143027Y-94826275D03*
X185143027Y-105173725D03*
X186959797Y-96040203D03*
X186959797Y-103959797D03*
X188173725Y-97856973D03*
X188173725Y-102143027D03*
X188600000Y-100000000D03*
G04 #@! TD*
D13*
G04 #@! TO.P,R20,1*
G04 #@! TO.N,S4_2*
X135037500Y-111500000D03*
G04 #@! TO.P,R20,2*
G04 #@! TO.N,S4_3*
X140962500Y-111500000D03*
G04 #@! TD*
G04 #@! TO.P,R7,1*
G04 #@! TO.N,S1_1*
X125037500Y-88500000D03*
G04 #@! TO.P,R7,2*
G04 #@! TO.N,S1_2*
X130962500Y-88500000D03*
G04 #@! TD*
G04 #@! TO.P,R15,1*
G04 #@! TO.N,S3_1*
X125037500Y-103900000D03*
G04 #@! TO.P,R15,2*
G04 #@! TO.N,S3_2*
X130962500Y-103900000D03*
G04 #@! TD*
D18*
G04 #@! TO.P,D3,1*
G04 #@! TO.N,LED_R*
X106062500Y-112500000D03*
G04 #@! TO.P,D3,2*
G04 #@! TO.N,VCC*
X107937500Y-112500000D03*
G04 #@! TD*
D11*
G04 #@! TO.P,R35,1*
G04 #@! TO.N,DUMP*
X165412500Y-96000000D03*
G04 #@! TO.P,R35,2*
G04 #@! TO.N,GATE*
X163587500Y-96000000D03*
G04 #@! TD*
D15*
G04 #@! TO.P,R34,1*
G04 #@! TO.N,GND*
X77087500Y-103000000D03*
G04 #@! TO.P,R34,2*
G04 #@! TO.N,LED_B*
X78912500Y-103000000D03*
G04 #@! TD*
D19*
G04 #@! TO.P,UPDI1,1*
G04 #@! TO.N,VCC*
X86000000Y-93500000D03*
D20*
G04 #@! TO.P,UPDI1,2*
G04 #@! TO.N,RESET*
X88540000Y-93500000D03*
G04 #@! TO.P,UPDI1,3*
G04 #@! TO.N,GND*
X91080000Y-93500000D03*
G04 #@! TD*
D13*
G04 #@! TO.P,R12,1*
G04 #@! TO.N,S2_2*
X135037500Y-96100000D03*
G04 #@! TO.P,R12,2*
G04 #@! TO.N,S2_3*
X140962500Y-96100000D03*
G04 #@! TD*
D11*
G04 #@! TO.P,R1,1*
G04 #@! TO.N,VCC*
X98912500Y-103000000D03*
G04 #@! TO.P,R1,2*
G04 #@! TO.N,RESET*
X97087500Y-103000000D03*
G04 #@! TD*
D10*
G04 #@! TO.P,R33,1*
G04 #@! TO.N,PA7*
X106000000Y-102412500D03*
G04 #@! TO.P,R33,2*
G04 #@! TO.N,GND*
X106000000Y-100587500D03*
G04 #@! TD*
D21*
G04 #@! TO.P,TX1,1*
G04 #@! TO.N,TXOUT1*
X81375000Y-110000000D03*
G04 #@! TO.P,TX1,2*
G04 #@! TO.N,TXOUT2*
X82625000Y-110000000D03*
D22*
G04 #@! TO.P,TX1,MP*
G04 #@! TO.N,N/C*
X78825000Y-112900000D03*
X85175000Y-112900000D03*
G04 #@! TD*
D13*
G04 #@! TO.P,R14,1*
G04 #@! TO.N,VCC*
X115037500Y-103900000D03*
G04 #@! TO.P,R14,2*
G04 #@! TO.N,S3_1*
X120962500Y-103900000D03*
G04 #@! TD*
D10*
G04 #@! TO.P,R32,1*
G04 #@! TO.N,ENABLE*
X106000000Y-97912500D03*
G04 #@! TO.P,R32,2*
G04 #@! TO.N,PA7*
X106000000Y-96087500D03*
G04 #@! TD*
D23*
G04 #@! TO.P,U1,1*
G04 #@! TO.N,OPTO_A*
X94187500Y-112135000D03*
G04 #@! TO.P,U1,2*
G04 #@! TO.N,GND*
X94187500Y-110865000D03*
G04 #@! TO.P,U1,3*
G04 #@! TO.N,TXOUT1*
X87812500Y-110865000D03*
G04 #@! TO.P,U1,4*
G04 #@! TO.N,TXOUT2*
X87812500Y-112135000D03*
G04 #@! TD*
D16*
G04 #@! TO.P,BAT+,1*
G04 #@! TO.N,BAT+*
X54400000Y-100000000D03*
X54826275Y-97856973D03*
X54826275Y-102143027D03*
X56040203Y-96040203D03*
X56040203Y-103959797D03*
X57856973Y-94826275D03*
X57856973Y-105173725D03*
X60000000Y-94400000D03*
D17*
X60000000Y-100000000D03*
D16*
X60000000Y-105600000D03*
X62143027Y-94826275D03*
X62143027Y-105173725D03*
X63959797Y-96040203D03*
X63959797Y-103959797D03*
X65173725Y-97856973D03*
X65173725Y-102143027D03*
X65600000Y-100000000D03*
G04 #@! TD*
D24*
G04 #@! TO.P,D1,1*
G04 #@! TO.N,VREF*
X96562500Y-93050000D03*
G04 #@! TO.P,D1,2*
X96562500Y-94950000D03*
G04 #@! TO.P,D1,3*
G04 #@! TO.N,GND*
X98437500Y-94000000D03*
G04 #@! TD*
D15*
G04 #@! TO.P,R5,1*
G04 #@! TO.N,OPTO_A*
X97087500Y-100500000D03*
G04 #@! TO.P,R5,2*
G04 #@! TO.N,TXD0*
X98912500Y-100500000D03*
G04 #@! TD*
D13*
G04 #@! TO.P,R6,1*
G04 #@! TO.N,VCC*
X115037500Y-88500000D03*
G04 #@! TO.P,R6,2*
G04 #@! TO.N,S1_1*
X120962500Y-88500000D03*
G04 #@! TD*
G04 #@! TO.P,R21,1*
G04 #@! TO.N,S4_3*
X145037500Y-111500000D03*
G04 #@! TO.P,R21,2*
G04 #@! TO.N,DRAIN*
X150962500Y-111500000D03*
G04 #@! TD*
D25*
G04 #@! TO.P,U2,1*
G04 #@! TO.N,VCC*
X87190000Y-105475000D03*
G04 #@! TO.P,U2,2*
G04 #@! TO.N,N/C*
X88460000Y-105475000D03*
G04 #@! TO.P,U2,3*
G04 #@! TO.N,VREF*
X89730000Y-105475000D03*
G04 #@! TO.P,U2,4*
G04 #@! TO.N,PA6*
X91000000Y-105475000D03*
G04 #@! TO.P,U2,5*
G04 #@! TO.N,PA7*
X92270000Y-105475000D03*
G04 #@! TO.P,U2,6*
G04 #@! TO.N,RXD0*
X93540000Y-105475000D03*
G04 #@! TO.P,U2,7*
G04 #@! TO.N,TXD0*
X94810000Y-105475000D03*
G04 #@! TO.P,U2,8*
G04 #@! TO.N,DUMP*
X94810000Y-100525000D03*
G04 #@! TO.P,U2,9*
G04 #@! TO.N,ENABLE*
X93540000Y-100525000D03*
G04 #@! TO.P,U2,10*
G04 #@! TO.N,RESET*
X92270000Y-100525000D03*
G04 #@! TO.P,U2,11*
G04 #@! TO.N,REF_EN*
X91000000Y-100525000D03*
G04 #@! TO.P,U2,12*
G04 #@! TO.N,N/C*
X89730000Y-100525000D03*
G04 #@! TO.P,U2,13*
G04 #@! TO.N,PA3*
X88460000Y-100525000D03*
G04 #@! TO.P,U2,14*
G04 #@! TO.N,GND*
X87190000Y-100525000D03*
G04 #@! TD*
D13*
G04 #@! TO.P,R16,1*
G04 #@! TO.N,S3_2*
X135037500Y-103900000D03*
G04 #@! TO.P,R16,2*
G04 #@! TO.N,S3_3*
X140962500Y-103900000D03*
G04 #@! TD*
D26*
G04 #@! TO.P,D2,1*
G04 #@! TO.N,VCC*
X77850000Y-94000000D03*
G04 #@! TO.P,D2,2*
G04 #@! TO.N,GND*
X82150000Y-94000000D03*
G04 #@! TD*
D27*
G04 #@! TO.P,D4,1*
G04 #@! TO.N,LED_B*
X78937500Y-100500000D03*
G04 #@! TO.P,D4,2*
G04 #@! TO.N,PA6*
X77062500Y-100500000D03*
G04 #@! TD*
D28*
G04 #@! TO.P,Q1,1*
G04 #@! TO.N,GND*
X162475000Y-101905000D03*
G04 #@! TO.P,Q1,2*
X162475000Y-100635000D03*
G04 #@! TO.P,Q1,3*
X162475000Y-99365000D03*
G04 #@! TO.P,Q1,4*
G04 #@! TO.N,GATE*
X162475000Y-98095000D03*
G04 #@! TO.P,Q1,5*
G04 #@! TO.N,DRAIN*
X157525000Y-98095000D03*
G04 #@! TO.P,Q1,6*
X157525000Y-99365000D03*
G04 #@! TO.P,Q1,7*
X157525000Y-100635000D03*
G04 #@! TO.P,Q1,8*
X157525000Y-101905000D03*
G04 #@! TD*
D13*
G04 #@! TO.P,R10,1*
G04 #@! TO.N,VCC*
X115037500Y-96100000D03*
G04 #@! TO.P,R10,2*
G04 #@! TO.N,S2_1*
X120962500Y-96100000D03*
G04 #@! TD*
D21*
G04 #@! TO.P,RX1,1*
G04 #@! TO.N,RXD0*
X99875000Y-110000000D03*
G04 #@! TO.P,RX1,2*
G04 #@! TO.N,VCC*
X101125000Y-110000000D03*
D22*
G04 #@! TO.P,RX1,MP*
G04 #@! TO.N,N/C*
X97325000Y-112900000D03*
X103675000Y-112900000D03*
G04 #@! TD*
D13*
G04 #@! TO.P,R19,1*
G04 #@! TO.N,S4_1*
X125037500Y-111500000D03*
G04 #@! TO.P,R19,2*
G04 #@! TO.N,S4_2*
X130962500Y-111500000D03*
G04 #@! TD*
D14*
G04 #@! TO.P,C2,1*
G04 #@! TO.N,VCC*
X82600000Y-103950000D03*
G04 #@! TO.P,C2,2*
G04 #@! TO.N,GND*
X82600000Y-102050000D03*
G04 #@! TD*
D13*
G04 #@! TO.P,R17,1*
G04 #@! TO.N,S3_3*
X145037500Y-103900000D03*
G04 #@! TO.P,R17,2*
G04 #@! TO.N,DRAIN*
X150962500Y-103900000D03*
G04 #@! TD*
G04 #@! TO.P,R8,1*
G04 #@! TO.N,S1_2*
X135037500Y-88500000D03*
G04 #@! TO.P,R8,2*
G04 #@! TO.N,S1_3*
X140962500Y-88500000D03*
G04 #@! TD*
G04 #@! TO.P,R9,1*
G04 #@! TO.N,S1_3*
X145037500Y-88500000D03*
G04 #@! TO.P,R9,2*
G04 #@! TO.N,DRAIN*
X150962500Y-88500000D03*
G04 #@! TD*
D29*
G04 #@! TO.N,GND*
X100728100Y-100436300D03*
X94187500Y-110000600D03*
X98437500Y-93104000D03*
X166479600Y-93397100D03*
X97087500Y-106793800D03*
X106000000Y-99500800D03*
X83957500Y-93406100D03*
X75992100Y-102868800D03*
X86217100Y-100520000D03*
G04 #@! TO.N,VCC*
X111227899Y-110366600D03*
X107803400Y-110219400D03*
X101345800Y-107144399D03*
G04 #@! TO.N,DUMP*
X94891399Y-102764900D03*
X165116300Y-97486000D03*
G04 #@! TO.N,VREF*
X89749600Y-102495700D03*
X98033500Y-95221500D03*
G04 #@! TO.N,PA7*
X93320900Y-103566000D03*
X104000000Y-103455400D03*
G04 #@! TO.N,TXD0*
X94834899Y-103806300D03*
X100870700Y-103354300D03*
G04 #@! TO.N,ENABLE*
X73236399Y-106911000D03*
X104256100Y-96076200D03*
X90892600Y-103113800D03*
G04 #@! TO.N,PA3*
X103286400Y-95371300D03*
X75822000Y-104216600D03*
X87059800Y-103353700D03*
G04 #@! TO.N,LED_R*
X161990100Y-111242800D03*
X110286800Y-111368000D03*
G04 #@! TD*
D30*
G04 #@! TO.N,GND*
X85680000Y-100520000D02*
X87190000Y-100520000D01*
X87185000Y-100520000D02*
X87190000Y-100525000D01*
X85000000Y-102050000D02*
X85000000Y-101200000D01*
X106000000Y-100587500D02*
X106000000Y-99500800D01*
X102000000Y-100587500D02*
X100848300Y-100587500D01*
D31*
X82600000Y-102050000D02*
X85000000Y-102050000D01*
D30*
X83851700Y-93511900D02*
X83851700Y-94000000D01*
X98437500Y-93104000D02*
X98437500Y-94000000D01*
X77087500Y-103000000D02*
X76123300Y-103000000D01*
X94187500Y-110000600D02*
X94187500Y-110865000D01*
X100848300Y-100556500D02*
X100728100Y-100436300D01*
X83957500Y-93406100D02*
X83851700Y-93511900D01*
X97087500Y-106793800D02*
X97087500Y-105500000D01*
X100848300Y-100587500D02*
X100848300Y-100556500D01*
X165412500Y-93500000D02*
X166376700Y-93500000D01*
X166479600Y-93397100D02*
X166376700Y-93500000D01*
X85000000Y-101200000D02*
X85680000Y-100520000D01*
X82150000Y-94000000D02*
X83851700Y-94000000D01*
X76123300Y-103000000D02*
X75992100Y-102868800D01*
D31*
G04 #@! TO.N,VCC*
X77850000Y-97000000D02*
X80500000Y-97000000D01*
D30*
X99876700Y-103494000D02*
X101125000Y-104742300D01*
X99876700Y-103000000D02*
X99876700Y-103494000D01*
D32*
X76890000Y-91500000D02*
X77850000Y-92500000D01*
D30*
X101345800Y-107144399D02*
X101125000Y-107144399D01*
D31*
X80500000Y-103950000D02*
X82600000Y-103950000D01*
D30*
X85900000Y-104850000D02*
X86600000Y-105480000D01*
X101125000Y-107144399D02*
X101125000Y-110000000D01*
D31*
X80500000Y-97000000D02*
X80500000Y-103950000D01*
D30*
X85000000Y-103950000D02*
X85900000Y-104850000D01*
D31*
X77850000Y-94000000D02*
X77850000Y-97000000D01*
D32*
X76890000Y-87700000D02*
X76890000Y-91500000D01*
D30*
X87185000Y-105480000D02*
X87190000Y-105475000D01*
X101125000Y-104742300D02*
X101125000Y-107144399D01*
X86600000Y-105480000D02*
X87190000Y-105480000D01*
X98912500Y-103000000D02*
X99876700Y-103000000D01*
X107937500Y-110353500D02*
X107937500Y-112500000D01*
D31*
X82600000Y-103950000D02*
X85000000Y-103950000D01*
D32*
X77850000Y-92500000D02*
X77850000Y-94000000D01*
D30*
X86000000Y-89340399D02*
X86000000Y-93500000D01*
X107803400Y-110219400D02*
X107937500Y-110353500D01*
D31*
G04 #@! TO.N,DRAIN*
X157600000Y-112000000D02*
X159090000Y-112000000D01*
D33*
G04 #@! TO.N,GATE*
X163587500Y-96525800D02*
X163587500Y-96000000D01*
X163801700Y-98095000D02*
X163801700Y-97265899D01*
X162475000Y-98095000D02*
X163801700Y-98095000D01*
X163801700Y-97265899D02*
X163587500Y-97051700D01*
X163587500Y-96000000D02*
X163587500Y-93500000D01*
X163587500Y-96525800D02*
X163587500Y-97051700D01*
G04 #@! TO.N,DUMP*
X94810000Y-100525000D02*
X94810000Y-101851700D01*
X94810000Y-102683500D02*
X94891399Y-102764900D01*
X94810000Y-101851700D02*
X94810000Y-102683500D01*
X165412500Y-96000000D02*
X165412500Y-97051700D01*
X165116300Y-97347900D02*
X165116300Y-97486000D01*
X165412500Y-97051700D02*
X165116300Y-97347900D01*
G04 #@! TO.N,VREF*
X89730000Y-102515300D02*
X89730000Y-105475000D01*
X97348300Y-92398300D02*
X99759100Y-92398300D01*
X97348300Y-92398300D02*
X97348300Y-94445700D01*
X97703000Y-94651699D02*
X98033500Y-94982199D01*
X99759100Y-92398300D02*
X100448300Y-93087500D01*
X96562500Y-93050000D02*
X96562500Y-92398300D01*
X97554300Y-94651699D02*
X97703000Y-94651699D01*
X89749600Y-102495700D02*
X89730000Y-102515300D01*
X98033500Y-94982199D02*
X98033500Y-95221500D01*
X96562500Y-92398300D02*
X97348300Y-92398300D01*
X97348300Y-94445700D02*
X97554300Y-94651699D01*
X101500000Y-93087500D02*
X100448300Y-93087500D01*
X96562500Y-93050000D02*
X96562500Y-94950000D01*
G04 #@! TO.N,PA6*
X91000000Y-106801700D02*
X80932200Y-106801700D01*
X91000000Y-105475000D02*
X91000000Y-106801700D01*
X80932200Y-106801700D02*
X77999800Y-103869300D01*
X77212500Y-100500000D02*
X77212500Y-101326700D01*
X77999800Y-103869300D02*
X77999800Y-102114000D01*
X77999800Y-102114000D02*
X77212500Y-101326700D01*
G04 #@! TO.N,PA7*
X105821300Y-103455400D02*
X106000000Y-103276699D01*
X107072800Y-101231700D02*
X106756200Y-101548300D01*
X92270000Y-104148300D02*
X92738600Y-104148300D01*
X106000000Y-102412500D02*
X106000000Y-101548300D01*
X107072800Y-97268300D02*
X107072800Y-101231700D01*
X106756200Y-101548300D02*
X106000000Y-101548300D01*
X106756200Y-96951700D02*
X107072800Y-97268300D01*
X106000000Y-96087500D02*
X106000000Y-96951700D01*
X106000000Y-96951700D02*
X106756200Y-96951700D01*
X92270000Y-105475000D02*
X92270000Y-104148300D01*
X106000000Y-102412500D02*
X106000000Y-103276699D01*
X92738600Y-104148300D02*
X93320900Y-103566000D01*
X104000000Y-103455400D02*
X105821300Y-103455400D01*
G04 #@! TO.N,RXD0*
X95193800Y-114751700D02*
X92997700Y-112555600D01*
X93540000Y-105475000D02*
X93540000Y-106801700D01*
X99875000Y-113498500D02*
X98621800Y-114751700D01*
X99875000Y-110000000D02*
X99875000Y-113498500D01*
X99875000Y-110000000D02*
X99875000Y-108848300D01*
X98621800Y-114751700D02*
X95193800Y-114751700D01*
X99776699Y-108750000D02*
X99776699Y-105500000D01*
X99875000Y-108848300D02*
X99776699Y-108750000D01*
X98912500Y-105500000D02*
X99776699Y-105500000D01*
X92997700Y-107344000D02*
X93540000Y-106801700D01*
X92997700Y-112555600D02*
X92997700Y-107344000D01*
G04 #@! TO.N,TXD0*
X99776699Y-100500000D02*
X100870700Y-101594000D01*
X100870700Y-101594000D02*
X100870700Y-103354300D01*
X94810000Y-103831200D02*
X94834899Y-103806300D01*
X98912500Y-100500000D02*
X99776699Y-100500000D01*
X94810000Y-105475000D02*
X94810000Y-103831200D01*
G04 #@! TO.N,ENABLE*
X72087500Y-114300000D02*
X72087500Y-108059900D01*
X93540000Y-100525000D02*
X93540000Y-101851700D01*
X104945300Y-98644900D02*
X105077100Y-98776699D01*
X90892600Y-103113800D02*
X92277899Y-103113800D01*
X104256100Y-96076200D02*
X104945300Y-96076200D01*
X104945300Y-95406500D02*
X104945300Y-96076200D01*
X105077100Y-98776699D02*
X106000000Y-98776699D01*
X104945300Y-96076200D02*
X104945300Y-98644900D01*
X106000000Y-97912500D02*
X106000000Y-98776699D01*
X106439300Y-93912500D02*
X104945300Y-95406500D01*
X72087500Y-108059900D02*
X73236399Y-106911000D01*
X92277899Y-103113800D02*
X93540000Y-101851700D01*
X108000000Y-93912500D02*
X106439300Y-93912500D01*
G04 #@! TO.N,RESET*
X92270000Y-99324100D02*
X92270000Y-99199800D01*
X97951700Y-99581000D02*
X97951700Y-103000000D01*
X92270000Y-100525000D02*
X92270000Y-99324100D01*
X92270000Y-99199800D02*
X92270000Y-99198300D01*
X92270000Y-99199800D02*
X88540000Y-95469800D01*
X97087500Y-103000000D02*
X97951700Y-103000000D01*
X92270000Y-99198300D02*
X97569000Y-99198300D01*
X97569000Y-99198300D02*
X97951700Y-99581000D01*
X88540000Y-95469800D02*
X88540000Y-93500000D01*
G04 #@! TO.N,REF_EN*
X101349100Y-95927600D02*
X95948900Y-95927600D01*
X95948900Y-95927600D02*
X92251899Y-92230600D01*
X87302399Y-95500700D02*
X91000000Y-99198300D01*
X101500000Y-95776699D02*
X101349100Y-95927600D01*
X91000000Y-100525000D02*
X91000000Y-99198300D01*
X92251899Y-92230600D02*
X87599899Y-92230600D01*
X101500000Y-94912500D02*
X101500000Y-95776699D01*
X87302399Y-92528100D02*
X87302399Y-95500700D01*
X87599899Y-92230600D02*
X87302399Y-92528100D01*
G04 #@! TO.N,PA3*
X102000000Y-101548300D02*
X102756200Y-101548300D01*
X87059800Y-103353700D02*
X88460000Y-101953500D01*
X108000000Y-92087500D02*
X106948300Y-92087500D01*
X103475500Y-100829000D02*
X103475500Y-95560300D01*
X88460000Y-101953500D02*
X88460000Y-100525000D01*
X74776699Y-105261900D02*
X75822000Y-104216600D01*
X74776699Y-114300000D02*
X74776699Y-105261900D01*
X103475500Y-95560300D02*
X106948300Y-92087500D01*
X102756200Y-101548300D02*
X103475500Y-100829000D01*
X73912500Y-114300000D02*
X74776699Y-114300000D01*
X103286400Y-95371300D02*
X103286500Y-95371300D01*
X103286500Y-95371300D02*
X103475500Y-95560300D01*
X102000000Y-102412500D02*
X102000000Y-101548300D01*
G04 #@! TO.N,LED_B*
X78787500Y-100500000D02*
X78787500Y-101326700D01*
X78912500Y-101451700D02*
X78787500Y-101326700D01*
X78912500Y-103000000D02*
X78912500Y-101451700D01*
G04 #@! TO.N,OPTO_A*
X95700000Y-112135000D02*
X94190000Y-112135000D01*
X95700000Y-101900000D02*
X95700000Y-112135000D01*
X97090000Y-100500000D02*
X95700000Y-101900000D01*
G04 #@! TO.N,TXOUT1*
X87812500Y-110865000D02*
X85795800Y-108848300D01*
X81375000Y-110000000D02*
X81375000Y-108848300D01*
X85795800Y-108848300D02*
X81375000Y-108848300D01*
G04 #@! TO.N,TXOUT2*
X86648300Y-112135000D02*
X86648300Y-111318400D01*
X86648300Y-111318400D02*
X86337500Y-111007600D01*
X83520800Y-111007600D02*
X83376700Y-111151699D01*
X82625000Y-110000000D02*
X82625000Y-111151699D01*
X86337500Y-111007600D02*
X83520800Y-111007600D01*
X87812500Y-112135000D02*
X86648300Y-112135000D01*
X83376700Y-111151699D02*
X82625000Y-111151699D01*
G04 #@! TO.N,LED_R*
X161776700Y-111456200D02*
X161776700Y-112000000D01*
X160912500Y-112000000D02*
X161776700Y-112000000D01*
X106062500Y-112500000D02*
X106062500Y-110962200D01*
X108393600Y-109474800D02*
X110286800Y-111368000D01*
X106062500Y-110962200D02*
X107549900Y-109474800D01*
X107549900Y-109474800D02*
X108393600Y-109474800D01*
X161990100Y-111242800D02*
X161776700Y-111456200D01*
G04 #@! TD*
G04 #@! TA.AperFunction,Conductor*
G04 #@! TO.N,S4_1*
G36*
X125943039Y-109419685D02*
G01*
X125988794Y-109472489D01*
X126000000Y-109524000D01*
X126000000Y-113476000D01*
X125980315Y-113543039D01*
X125927511Y-113588794D01*
X125876000Y-113600000D01*
X120124000Y-113600000D01*
X120056961Y-113580315D01*
X120011206Y-113527511D01*
X120000000Y-113476000D01*
X120000000Y-109524000D01*
X120019685Y-109456961D01*
X120072489Y-109411206D01*
X120124000Y-109400000D01*
X125876000Y-109400000D01*
X125943039Y-109419685D01*
G37*
G04 #@! TD.AperFunction*
G04 #@! TD*
G04 #@! TA.AperFunction,Conductor*
G04 #@! TO.N,S1_1*
G36*
X125943039Y-86419685D02*
G01*
X125988794Y-86472489D01*
X126000000Y-86524000D01*
X126000000Y-90476000D01*
X125980315Y-90543039D01*
X125927511Y-90588794D01*
X125876000Y-90600000D01*
X120124000Y-90600000D01*
X120056961Y-90580315D01*
X120011206Y-90527511D01*
X120000000Y-90476000D01*
X120000000Y-86524000D01*
X120019685Y-86456961D01*
X120072489Y-86411206D01*
X120124000Y-86400000D01*
X125876000Y-86400000D01*
X125943039Y-86419685D01*
G37*
G04 #@! TD.AperFunction*
G04 #@! TD*
G04 #@! TA.AperFunction,Conductor*
G04 #@! TO.N,S1_2*
G36*
X135943039Y-86419685D02*
G01*
X135988794Y-86472489D01*
X136000000Y-86524000D01*
X136000000Y-90476000D01*
X135980315Y-90543039D01*
X135927511Y-90588794D01*
X135876000Y-90600000D01*
X130124000Y-90600000D01*
X130056961Y-90580315D01*
X130011206Y-90527511D01*
X130000000Y-90476000D01*
X130000000Y-86524000D01*
X130019685Y-86456961D01*
X130072489Y-86411206D01*
X130124000Y-86400000D01*
X135876000Y-86400000D01*
X135943039Y-86419685D01*
G37*
G04 #@! TD.AperFunction*
G04 #@! TD*
G04 #@! TA.AperFunction,Conductor*
G04 #@! TO.N,GND*
G36*
X183001563Y-84550538D02*
G01*
X183767027Y-84569628D01*
X183773143Y-84569933D01*
X184522109Y-84626060D01*
X184535177Y-84627040D01*
X184541329Y-84627655D01*
X185299572Y-84722675D01*
X185305685Y-84723597D01*
X186058208Y-84856287D01*
X186064269Y-84857512D01*
X186809272Y-85027554D01*
X186815263Y-85029080D01*
X187004737Y-85082389D01*
X187550851Y-85236042D01*
X187556729Y-85237855D01*
X188158225Y-85439947D01*
X188281114Y-85481236D01*
X188286924Y-85483351D01*
X188998228Y-85762517D01*
X189003925Y-85764918D01*
X189700477Y-86079213D01*
X189706032Y-86081888D01*
X190386051Y-86430514D01*
X190391444Y-86433451D01*
X191053253Y-86815547D01*
X191058489Y-86818747D01*
X191625314Y-87184841D01*
X191700421Y-87233350D01*
X191705529Y-87236833D01*
X192325957Y-87682890D01*
X192330886Y-87686623D01*
X192928329Y-88163068D01*
X192933065Y-88167042D01*
X193506020Y-88672677D01*
X193510525Y-88676857D01*
X194057601Y-89210460D01*
X194061888Y-89214856D01*
X194581625Y-89775000D01*
X194585717Y-89779635D01*
X195076927Y-90365037D01*
X195080781Y-90369871D01*
X195542160Y-90978975D01*
X195545765Y-90983989D01*
X195976253Y-91615398D01*
X195979598Y-91620578D01*
X196378047Y-92272613D01*
X196381138Y-92277967D01*
X196746593Y-92949052D01*
X196749414Y-92954554D01*
X197080968Y-93643034D01*
X197083511Y-93648670D01*
X197380330Y-94352808D01*
X197382589Y-94358563D01*
X197643947Y-95076637D01*
X197645916Y-95082498D01*
X197871149Y-95812688D01*
X197872824Y-95818640D01*
X198061390Y-96559182D01*
X198062765Y-96565210D01*
X198214172Y-97314184D01*
X198215246Y-97320273D01*
X198329138Y-98075890D01*
X198329907Y-98082025D01*
X198405992Y-98842380D01*
X198406454Y-98848545D01*
X198444544Y-99611747D01*
X198444698Y-99617928D01*
X198444698Y-100382071D01*
X198444544Y-100388252D01*
X198406454Y-101151454D01*
X198405992Y-101157619D01*
X198329907Y-101917974D01*
X198329138Y-101924109D01*
X198215246Y-102679726D01*
X198214172Y-102685815D01*
X198062765Y-103434789D01*
X198061390Y-103440817D01*
X197872824Y-104181359D01*
X197871149Y-104187311D01*
X197645916Y-104917501D01*
X197643947Y-104923362D01*
X197382589Y-105641436D01*
X197380330Y-105647191D01*
X197083511Y-106351329D01*
X197080968Y-106356965D01*
X196749414Y-107045445D01*
X196746593Y-107050947D01*
X196381138Y-107722032D01*
X196378047Y-107727386D01*
X195979598Y-108379421D01*
X195976244Y-108384615D01*
X195545770Y-109016004D01*
X195542160Y-109021024D01*
X195080781Y-109630128D01*
X195076927Y-109634962D01*
X194585717Y-110220364D01*
X194581625Y-110224999D01*
X194061888Y-110785143D01*
X194057581Y-110789559D01*
X193510552Y-111323117D01*
X193506020Y-111327322D01*
X192933065Y-111832957D01*
X192928329Y-111836931D01*
X192330886Y-112313376D01*
X192325957Y-112317109D01*
X191705529Y-112763166D01*
X191700421Y-112766649D01*
X191058509Y-113181240D01*
X191053233Y-113184464D01*
X190391462Y-113566538D01*
X190386032Y-113569495D01*
X189706048Y-113918103D01*
X189700477Y-113920786D01*
X189003925Y-114235081D01*
X188998228Y-114237482D01*
X188286924Y-114516648D01*
X188281114Y-114518763D01*
X187556744Y-114762139D01*
X187550836Y-114763961D01*
X186815263Y-114970919D01*
X186809272Y-114972445D01*
X186064269Y-115142487D01*
X186058208Y-115143712D01*
X185305685Y-115276402D01*
X185299572Y-115277324D01*
X184541329Y-115372344D01*
X184535177Y-115372959D01*
X183773173Y-115430064D01*
X183766997Y-115430372D01*
X183001564Y-115449461D01*
X182998473Y-115449500D01*
X174624000Y-115449500D01*
X174556961Y-115429815D01*
X174511206Y-115377011D01*
X174500000Y-115325500D01*
X174500000Y-110000000D01*
X174500000Y-84674500D01*
X174519685Y-84607461D01*
X174572489Y-84561706D01*
X174624000Y-84550500D01*
X182952405Y-84550500D01*
X182998473Y-84550500D01*
X183001563Y-84550538D01*
G37*
G04 #@! TD.AperFunction*
G04 #@! TD*
G04 #@! TA.AperFunction,Conductor*
G04 #@! TO.N,S3_1*
G36*
X125943039Y-101819685D02*
G01*
X125988794Y-101872489D01*
X126000000Y-101924000D01*
X126000000Y-105876000D01*
X125980315Y-105943039D01*
X125927511Y-105988794D01*
X125876000Y-106000000D01*
X120124000Y-106000000D01*
X120056961Y-105980315D01*
X120011206Y-105927511D01*
X120000000Y-105876000D01*
X120000000Y-101924000D01*
X120019685Y-101856961D01*
X120072489Y-101811206D01*
X120124000Y-101800000D01*
X125876000Y-101800000D01*
X125943039Y-101819685D01*
G37*
G04 #@! TD.AperFunction*
G04 #@! TD*
G04 #@! TA.AperFunction,Conductor*
G04 #@! TO.N,S4_3*
G36*
X145943039Y-109419685D02*
G01*
X145988794Y-109472489D01*
X146000000Y-109524000D01*
X146000000Y-113476000D01*
X145980315Y-113543039D01*
X145927511Y-113588794D01*
X145876000Y-113600000D01*
X140124000Y-113600000D01*
X140056961Y-113580315D01*
X140011206Y-113527511D01*
X140000000Y-113476000D01*
X140000000Y-109524000D01*
X140019685Y-109456961D01*
X140072489Y-109411206D01*
X140124000Y-109400000D01*
X145876000Y-109400000D01*
X145943039Y-109419685D01*
G37*
G04 #@! TD.AperFunction*
G04 #@! TD*
G04 #@! TA.AperFunction,Conductor*
G04 #@! TO.N,S2_2*
G36*
X135943039Y-94019685D02*
G01*
X135988794Y-94072489D01*
X136000000Y-94124000D01*
X136000000Y-98076000D01*
X135980315Y-98143039D01*
X135927511Y-98188794D01*
X135876000Y-98200000D01*
X130124000Y-98200000D01*
X130056961Y-98180315D01*
X130011206Y-98127511D01*
X130000000Y-98076000D01*
X130000000Y-94124000D01*
X130019685Y-94056961D01*
X130072489Y-94011206D01*
X130124000Y-94000000D01*
X135876000Y-94000000D01*
X135943039Y-94019685D01*
G37*
G04 #@! TD.AperFunction*
G04 #@! TD*
G04 #@! TA.AperFunction,Conductor*
G04 #@! TO.N,BAT+*
G36*
X70943039Y-84619685D02*
G01*
X70988794Y-84672489D01*
X71000000Y-84724000D01*
X71000000Y-90276000D01*
X70980315Y-90343039D01*
X70927511Y-90388794D01*
X70876000Y-90400000D01*
X68000000Y-90400000D01*
X68000000Y-84600000D01*
X69000000Y-84600000D01*
X70876000Y-84600000D01*
X70943039Y-84619685D01*
G37*
G04 #@! TD.AperFunction*
G04 #@! TD*
G04 #@! TA.AperFunction,Conductor*
G04 #@! TO.N,VCC*
G36*
X116143039Y-84619685D02*
G01*
X116188794Y-84672489D01*
X116200000Y-84724000D01*
X116200000Y-113676000D01*
X116180315Y-113743039D01*
X116127511Y-113788794D01*
X116076000Y-113800000D01*
X110924000Y-113800000D01*
X110856961Y-113780315D01*
X110811206Y-113727511D01*
X110800000Y-113676000D01*
X110800000Y-111808258D01*
X110819685Y-111741219D01*
X110821950Y-111737818D01*
X110867020Y-111672523D01*
X110923037Y-111524818D01*
X110942078Y-111368000D01*
X110926914Y-111243108D01*
X110923037Y-111211181D01*
X110881061Y-111100500D01*
X110867020Y-111063477D01*
X110821950Y-110998181D01*
X110800067Y-110931826D01*
X110800000Y-110927741D01*
X110800000Y-90600000D01*
X75724000Y-90600000D01*
X75656961Y-90580315D01*
X75611206Y-90527511D01*
X75600000Y-90476000D01*
X75600000Y-84724000D01*
X75619685Y-84656961D01*
X75672489Y-84611206D01*
X75724000Y-84600000D01*
X116076000Y-84600000D01*
X116143039Y-84619685D01*
G37*
G04 #@! TD.AperFunction*
G04 #@! TD*
G04 #@! TA.AperFunction,Conductor*
G04 #@! TO.N,BAT+*
G36*
X68966177Y-84570185D02*
G01*
X68986819Y-84586819D01*
X69000000Y-84600000D01*
X69000000Y-90400000D01*
X69000000Y-115325500D01*
X68980315Y-115392539D01*
X68927511Y-115438294D01*
X68876000Y-115449500D01*
X60001527Y-115449500D01*
X59998436Y-115449461D01*
X59233002Y-115430372D01*
X59226826Y-115430064D01*
X58464822Y-115372959D01*
X58458670Y-115372344D01*
X57700427Y-115277324D01*
X57694314Y-115276402D01*
X56941791Y-115143712D01*
X56935730Y-115142487D01*
X56190727Y-114972445D01*
X56184736Y-114970919D01*
X55449163Y-114763961D01*
X55443255Y-114762139D01*
X54718885Y-114518763D01*
X54713075Y-114516648D01*
X54001771Y-114237482D01*
X53996074Y-114235081D01*
X53299522Y-113920786D01*
X53293951Y-113918103D01*
X52613967Y-113569495D01*
X52608537Y-113566538D01*
X51946766Y-113184464D01*
X51941490Y-113181240D01*
X51856889Y-113126599D01*
X51673116Y-113007906D01*
X51299578Y-112766649D01*
X51294470Y-112763166D01*
X50674042Y-112317109D01*
X50669113Y-112313376D01*
X50071670Y-111836931D01*
X50066934Y-111832957D01*
X49493979Y-111327322D01*
X49489472Y-111323140D01*
X48942398Y-110789539D01*
X48938121Y-110785154D01*
X48418369Y-110224993D01*
X48414282Y-110220364D01*
X47923072Y-109634962D01*
X47919218Y-109630128D01*
X47907804Y-109615059D01*
X47457829Y-109021011D01*
X47454239Y-109016018D01*
X47023740Y-108384591D01*
X47020416Y-108379445D01*
X46621952Y-107727386D01*
X46618861Y-107722032D01*
X46253406Y-107050947D01*
X46250585Y-107045445D01*
X45919031Y-106356965D01*
X45916488Y-106351329D01*
X45619662Y-105647174D01*
X45617410Y-105641436D01*
X45356052Y-104923362D01*
X45354083Y-104917501D01*
X45128850Y-104187311D01*
X45127175Y-104181359D01*
X44938602Y-103440786D01*
X44937241Y-103434821D01*
X44785827Y-102685815D01*
X44784753Y-102679726D01*
X44779611Y-102645617D01*
X44670859Y-101924094D01*
X44670092Y-101917974D01*
X44594004Y-101157587D01*
X44593547Y-101151487D01*
X44555456Y-100388252D01*
X44555302Y-100382071D01*
X44555302Y-99617928D01*
X44555456Y-99611747D01*
X44555744Y-99605982D01*
X44593547Y-98848509D01*
X44594004Y-98842415D01*
X44670094Y-98082005D01*
X44670858Y-98075910D01*
X44784753Y-97320267D01*
X44785827Y-97314184D01*
X44797761Y-97255149D01*
X44937243Y-96565170D01*
X44938599Y-96559221D01*
X45127181Y-95818615D01*
X45128843Y-95812712D01*
X45354090Y-95082476D01*
X45356044Y-95076658D01*
X45617421Y-94358533D01*
X45619656Y-94352839D01*
X45916497Y-93648648D01*
X45919021Y-93643055D01*
X46250597Y-92954530D01*
X46253393Y-92949076D01*
X46618867Y-92277954D01*
X46621952Y-92272613D01*
X47020428Y-91620536D01*
X47023727Y-91615426D01*
X47454252Y-90983962D01*
X47457815Y-90979007D01*
X47919232Y-90369852D01*
X47923057Y-90365055D01*
X48414304Y-89779609D01*
X48418351Y-89775025D01*
X48938141Y-89214825D01*
X48942378Y-89210480D01*
X49489493Y-88676838D01*
X49493953Y-88672701D01*
X50066946Y-88167031D01*
X50071657Y-88163078D01*
X50669130Y-87686609D01*
X50674024Y-87682903D01*
X51294486Y-87236821D01*
X51299562Y-87233360D01*
X51941527Y-86818735D01*
X51946728Y-86815558D01*
X52608571Y-86433441D01*
X52613931Y-86430523D01*
X53293983Y-86081880D01*
X53299504Y-86079221D01*
X53779698Y-85862550D01*
X53996074Y-85764918D01*
X54001771Y-85762517D01*
X54713084Y-85483347D01*
X54718876Y-85481239D01*
X55443282Y-85237851D01*
X55449136Y-85236046D01*
X56184740Y-85029078D01*
X56190722Y-85027555D01*
X56935739Y-84857510D01*
X56941783Y-84856288D01*
X57694322Y-84723595D01*
X57700420Y-84722675D01*
X58458673Y-84627654D01*
X58464819Y-84627040D01*
X59226858Y-84569933D01*
X59232970Y-84569628D01*
X59998436Y-84550538D01*
X60001527Y-84550500D01*
X68899138Y-84550500D01*
X68966177Y-84570185D01*
G37*
G04 #@! TD.AperFunction*
G04 #@! TD*
G04 #@! TA.AperFunction,Conductor*
G04 #@! TO.N,S3_2*
G36*
X135943039Y-101819685D02*
G01*
X135988794Y-101872489D01*
X136000000Y-101924000D01*
X136000000Y-105876000D01*
X135980315Y-105943039D01*
X135927511Y-105988794D01*
X135876000Y-106000000D01*
X130124000Y-106000000D01*
X130056961Y-105980315D01*
X130011206Y-105927511D01*
X130000000Y-105876000D01*
X130000000Y-101924000D01*
X130019685Y-101856961D01*
X130072489Y-101811206D01*
X130124000Y-101800000D01*
X135876000Y-101800000D01*
X135943039Y-101819685D01*
G37*
G04 #@! TD.AperFunction*
G04 #@! TD*
G04 #@! TA.AperFunction,Conductor*
G04 #@! TO.N,S2_3*
G36*
X145943039Y-94019685D02*
G01*
X145988794Y-94072489D01*
X146000000Y-94124000D01*
X146000000Y-98076000D01*
X145980315Y-98143039D01*
X145927511Y-98188794D01*
X145876000Y-98200000D01*
X140124000Y-98200000D01*
X140056961Y-98180315D01*
X140011206Y-98127511D01*
X140000000Y-98076000D01*
X140000000Y-94124000D01*
X140019685Y-94056961D01*
X140072489Y-94011206D01*
X140124000Y-94000000D01*
X145876000Y-94000000D01*
X145943039Y-94019685D01*
G37*
G04 #@! TD.AperFunction*
G04 #@! TD*
G04 #@! TA.AperFunction,Conductor*
G04 #@! TO.N,S4_2*
G36*
X135943039Y-109419685D02*
G01*
X135988794Y-109472489D01*
X136000000Y-109524000D01*
X136000000Y-113476000D01*
X135980315Y-113543039D01*
X135927511Y-113588794D01*
X135876000Y-113600000D01*
X130124000Y-113600000D01*
X130056961Y-113580315D01*
X130011206Y-113527511D01*
X130000000Y-113476000D01*
X130000000Y-109524000D01*
X130019685Y-109456961D01*
X130072489Y-109411206D01*
X130124000Y-109400000D01*
X135876000Y-109400000D01*
X135943039Y-109419685D01*
G37*
G04 #@! TD.AperFunction*
G04 #@! TD*
G04 #@! TA.AperFunction,Conductor*
G04 #@! TO.N,S1_3*
G36*
X145943039Y-86419685D02*
G01*
X145988794Y-86472489D01*
X146000000Y-86524000D01*
X146000000Y-90476000D01*
X145980315Y-90543039D01*
X145927511Y-90588794D01*
X145876000Y-90600000D01*
X140124000Y-90600000D01*
X140056961Y-90580315D01*
X140011206Y-90527511D01*
X140000000Y-90476000D01*
X140000000Y-86524000D01*
X140019685Y-86456961D01*
X140072489Y-86411206D01*
X140124000Y-86400000D01*
X145876000Y-86400000D01*
X145943039Y-86419685D01*
G37*
G04 #@! TD.AperFunction*
G04 #@! TD*
G04 #@! TA.AperFunction,Conductor*
G04 #@! TO.N,GND*
G36*
X174500000Y-110000000D02*
G01*
X161724000Y-110000000D01*
X161656961Y-109980315D01*
X161611206Y-109927511D01*
X161600000Y-109876000D01*
X161600000Y-98874000D01*
X161619685Y-98806961D01*
X161672489Y-98761206D01*
X161724000Y-98750000D01*
X174500000Y-98750000D01*
X174500000Y-110000000D01*
G37*
G04 #@! TD.AperFunction*
G04 #@! TD*
G04 #@! TA.AperFunction,Conductor*
G04 #@! TO.N,S2_1*
G36*
X125943039Y-94019685D02*
G01*
X125988794Y-94072489D01*
X126000000Y-94124000D01*
X126000000Y-98076000D01*
X125980315Y-98143039D01*
X125927511Y-98188794D01*
X125876000Y-98200000D01*
X120124000Y-98200000D01*
X120056961Y-98180315D01*
X120011206Y-98127511D01*
X120000000Y-98076000D01*
X120000000Y-94124000D01*
X120019685Y-94056961D01*
X120072489Y-94011206D01*
X120124000Y-94000000D01*
X125876000Y-94000000D01*
X125943039Y-94019685D01*
G37*
G04 #@! TD.AperFunction*
G04 #@! TD*
G04 #@! TA.AperFunction,Conductor*
G04 #@! TO.N,DRAIN*
G36*
X158243039Y-86219685D02*
G01*
X158288794Y-86272489D01*
X158300000Y-86324000D01*
X158300000Y-113676000D01*
X158280315Y-113743039D01*
X158227511Y-113788794D01*
X158176000Y-113800000D01*
X150124000Y-113800000D01*
X150056961Y-113780315D01*
X150011206Y-113727511D01*
X150000000Y-113676000D01*
X150000000Y-86324000D01*
X150019685Y-86256961D01*
X150072489Y-86211206D01*
X150124000Y-86200000D01*
X158176000Y-86200000D01*
X158243039Y-86219685D01*
G37*
G04 #@! TD.AperFunction*
G04 #@! TD*
G04 #@! TA.AperFunction,Conductor*
G04 #@! TO.N,S3_3*
G36*
X145943039Y-101819685D02*
G01*
X145988794Y-101872489D01*
X146000000Y-101924000D01*
X146000000Y-105876000D01*
X145980315Y-105943039D01*
X145927511Y-105988794D01*
X145876000Y-106000000D01*
X140124000Y-106000000D01*
X140056961Y-105980315D01*
X140011206Y-105927511D01*
X140000000Y-105876000D01*
X140000000Y-101924000D01*
X140019685Y-101856961D01*
X140072489Y-101811206D01*
X140124000Y-101800000D01*
X145876000Y-101800000D01*
X145943039Y-101819685D01*
G37*
G04 #@! TD.AperFunction*
G04 #@! TD*
M02*
