G04 #@! TF.GenerationSoftware,KiCad,Pcbnew,7.0.11+dfsg-1build4*
G04 #@! TF.CreationDate,2026-10-08T20:40:16+02:00*
G04 #@! TF.ProjectId,ModuleV450_Bolt123_V1,4d6f6475-6c65-4563-9435-305f426f6c74,rev?*
G04 #@! TF.SameCoordinates,Original*
G04 #@! TF.FileFunction,Legend,Bot*
G04 #@! TF.FilePolarity,Positive*
%FSLAX46Y46*%
G04 Gerber Fmt 4.6, Leading zero omitted, Abs format (unit mm)*
G04 Created by KiCad (PCBNEW 7.0.11+dfsg-1build4) date 2026-10-08 20:40:16*
%MOMM*%
%LPD*%
G01*
G04 APERTURE LIST*
%ADD10C,0.250000*%
%ADD11C,0.180000*%
%ADD12C,0.400000*%
%ADD13C,0.150000*%
%ADD14C,0.010000*%
%ADD15C,1.000000*%
%ADD16C,15.000000*%
%ADD17R,1.700000X1.700000*%
%ADD18O,1.700000X1.700000*%
G04 APERTURE END LIST*
D10*
X146249998Y-94680928D02*
X146249998Y-93180928D01*
X146249998Y-93180928D02*
X145749998Y-94252357D01*
X145749998Y-94252357D02*
X145249998Y-93180928D01*
X145249998Y-93180928D02*
X145249998Y-94680928D01*
X144321426Y-94680928D02*
X144464283Y-94609500D01*
X144464283Y-94609500D02*
X144535712Y-94538071D01*
X144535712Y-94538071D02*
X144607140Y-94395214D01*
X144607140Y-94395214D02*
X144607140Y-93966642D01*
X144607140Y-93966642D02*
X144535712Y-93823785D01*
X144535712Y-93823785D02*
X144464283Y-93752357D01*
X144464283Y-93752357D02*
X144321426Y-93680928D01*
X144321426Y-93680928D02*
X144107140Y-93680928D01*
X144107140Y-93680928D02*
X143964283Y-93752357D01*
X143964283Y-93752357D02*
X143892855Y-93823785D01*
X143892855Y-93823785D02*
X143821426Y-93966642D01*
X143821426Y-93966642D02*
X143821426Y-94395214D01*
X143821426Y-94395214D02*
X143892855Y-94538071D01*
X143892855Y-94538071D02*
X143964283Y-94609500D01*
X143964283Y-94609500D02*
X144107140Y-94680928D01*
X144107140Y-94680928D02*
X144321426Y-94680928D01*
X142535712Y-94680928D02*
X142535712Y-93180928D01*
X142535712Y-94609500D02*
X142678569Y-94680928D01*
X142678569Y-94680928D02*
X142964283Y-94680928D01*
X142964283Y-94680928D02*
X143107140Y-94609500D01*
X143107140Y-94609500D02*
X143178569Y-94538071D01*
X143178569Y-94538071D02*
X143249997Y-94395214D01*
X143249997Y-94395214D02*
X143249997Y-93966642D01*
X143249997Y-93966642D02*
X143178569Y-93823785D01*
X143178569Y-93823785D02*
X143107140Y-93752357D01*
X143107140Y-93752357D02*
X142964283Y-93680928D01*
X142964283Y-93680928D02*
X142678569Y-93680928D01*
X142678569Y-93680928D02*
X142535712Y-93752357D01*
X141178569Y-93680928D02*
X141178569Y-94680928D01*
X141821426Y-93680928D02*
X141821426Y-94466642D01*
X141821426Y-94466642D02*
X141749997Y-94609500D01*
X141749997Y-94609500D02*
X141607140Y-94680928D01*
X141607140Y-94680928D02*
X141392854Y-94680928D01*
X141392854Y-94680928D02*
X141249997Y-94609500D01*
X141249997Y-94609500D02*
X141178569Y-94538071D01*
X140249997Y-94680928D02*
X140392854Y-94609500D01*
X140392854Y-94609500D02*
X140464283Y-94466642D01*
X140464283Y-94466642D02*
X140464283Y-93180928D01*
X139107140Y-94609500D02*
X139249997Y-94680928D01*
X139249997Y-94680928D02*
X139535712Y-94680928D01*
X139535712Y-94680928D02*
X139678569Y-94609500D01*
X139678569Y-94609500D02*
X139749997Y-94466642D01*
X139749997Y-94466642D02*
X139749997Y-93895214D01*
X139749997Y-93895214D02*
X139678569Y-93752357D01*
X139678569Y-93752357D02*
X139535712Y-93680928D01*
X139535712Y-93680928D02*
X139249997Y-93680928D01*
X139249997Y-93680928D02*
X139107140Y-93752357D01*
X139107140Y-93752357D02*
X139035712Y-93895214D01*
X139035712Y-93895214D02*
X139035712Y-94038071D01*
X139035712Y-94038071D02*
X139749997Y-94180928D01*
X138607140Y-93180928D02*
X138107140Y-94680928D01*
X138107140Y-94680928D02*
X137607140Y-93180928D01*
X136464284Y-93680928D02*
X136464284Y-94680928D01*
X136821426Y-93109500D02*
X137178569Y-94180928D01*
X137178569Y-94180928D02*
X136249998Y-94180928D01*
X134964284Y-93180928D02*
X135678570Y-93180928D01*
X135678570Y-93180928D02*
X135749998Y-93895214D01*
X135749998Y-93895214D02*
X135678570Y-93823785D01*
X135678570Y-93823785D02*
X135535713Y-93752357D01*
X135535713Y-93752357D02*
X135178570Y-93752357D01*
X135178570Y-93752357D02*
X135035713Y-93823785D01*
X135035713Y-93823785D02*
X134964284Y-93895214D01*
X134964284Y-93895214D02*
X134892855Y-94038071D01*
X134892855Y-94038071D02*
X134892855Y-94395214D01*
X134892855Y-94395214D02*
X134964284Y-94538071D01*
X134964284Y-94538071D02*
X135035713Y-94609500D01*
X135035713Y-94609500D02*
X135178570Y-94680928D01*
X135178570Y-94680928D02*
X135535713Y-94680928D01*
X135535713Y-94680928D02*
X135678570Y-94609500D01*
X135678570Y-94609500D02*
X135749998Y-94538071D01*
X133964284Y-93180928D02*
X133821427Y-93180928D01*
X133821427Y-93180928D02*
X133678570Y-93252357D01*
X133678570Y-93252357D02*
X133607142Y-93323785D01*
X133607142Y-93323785D02*
X133535713Y-93466642D01*
X133535713Y-93466642D02*
X133464284Y-93752357D01*
X133464284Y-93752357D02*
X133464284Y-94109500D01*
X133464284Y-94109500D02*
X133535713Y-94395214D01*
X133535713Y-94395214D02*
X133607142Y-94538071D01*
X133607142Y-94538071D02*
X133678570Y-94609500D01*
X133678570Y-94609500D02*
X133821427Y-94680928D01*
X133821427Y-94680928D02*
X133964284Y-94680928D01*
X133964284Y-94680928D02*
X134107142Y-94609500D01*
X134107142Y-94609500D02*
X134178570Y-94538071D01*
X134178570Y-94538071D02*
X134249999Y-94395214D01*
X134249999Y-94395214D02*
X134321427Y-94109500D01*
X134321427Y-94109500D02*
X134321427Y-93752357D01*
X134321427Y-93752357D02*
X134249999Y-93466642D01*
X134249999Y-93466642D02*
X134178570Y-93323785D01*
X134178570Y-93323785D02*
X134107142Y-93252357D01*
X134107142Y-93252357D02*
X133964284Y-93180928D01*
X133178571Y-94823785D02*
X132035713Y-94823785D01*
X131178571Y-93895214D02*
X130964285Y-93966642D01*
X130964285Y-93966642D02*
X130892856Y-94038071D01*
X130892856Y-94038071D02*
X130821428Y-94180928D01*
X130821428Y-94180928D02*
X130821428Y-94395214D01*
X130821428Y-94395214D02*
X130892856Y-94538071D01*
X130892856Y-94538071D02*
X130964285Y-94609500D01*
X130964285Y-94609500D02*
X131107142Y-94680928D01*
X131107142Y-94680928D02*
X131678571Y-94680928D01*
X131678571Y-94680928D02*
X131678571Y-93180928D01*
X131678571Y-93180928D02*
X131178571Y-93180928D01*
X131178571Y-93180928D02*
X131035714Y-93252357D01*
X131035714Y-93252357D02*
X130964285Y-93323785D01*
X130964285Y-93323785D02*
X130892856Y-93466642D01*
X130892856Y-93466642D02*
X130892856Y-93609500D01*
X130892856Y-93609500D02*
X130964285Y-93752357D01*
X130964285Y-93752357D02*
X131035714Y-93823785D01*
X131035714Y-93823785D02*
X131178571Y-93895214D01*
X131178571Y-93895214D02*
X131678571Y-93895214D01*
X129964285Y-94680928D02*
X130107142Y-94609500D01*
X130107142Y-94609500D02*
X130178571Y-94538071D01*
X130178571Y-94538071D02*
X130249999Y-94395214D01*
X130249999Y-94395214D02*
X130249999Y-93966642D01*
X130249999Y-93966642D02*
X130178571Y-93823785D01*
X130178571Y-93823785D02*
X130107142Y-93752357D01*
X130107142Y-93752357D02*
X129964285Y-93680928D01*
X129964285Y-93680928D02*
X129749999Y-93680928D01*
X129749999Y-93680928D02*
X129607142Y-93752357D01*
X129607142Y-93752357D02*
X129535714Y-93823785D01*
X129535714Y-93823785D02*
X129464285Y-93966642D01*
X129464285Y-93966642D02*
X129464285Y-94395214D01*
X129464285Y-94395214D02*
X129535714Y-94538071D01*
X129535714Y-94538071D02*
X129607142Y-94609500D01*
X129607142Y-94609500D02*
X129749999Y-94680928D01*
X129749999Y-94680928D02*
X129964285Y-94680928D01*
X128607142Y-94680928D02*
X128749999Y-94609500D01*
X128749999Y-94609500D02*
X128821428Y-94466642D01*
X128821428Y-94466642D02*
X128821428Y-93180928D01*
X128249999Y-93680928D02*
X127678571Y-93680928D01*
X128035714Y-93180928D02*
X128035714Y-94466642D01*
X128035714Y-94466642D02*
X127964285Y-94609500D01*
X127964285Y-94609500D02*
X127821428Y-94680928D01*
X127821428Y-94680928D02*
X127678571Y-94680928D01*
X126392856Y-94680928D02*
X127249999Y-94680928D01*
X126821428Y-94680928D02*
X126821428Y-93180928D01*
X126821428Y-93180928D02*
X126964285Y-93395214D01*
X126964285Y-93395214D02*
X127107142Y-93538071D01*
X127107142Y-93538071D02*
X127249999Y-93609500D01*
X125821428Y-93323785D02*
X125750000Y-93252357D01*
X125750000Y-93252357D02*
X125607143Y-93180928D01*
X125607143Y-93180928D02*
X125250000Y-93180928D01*
X125250000Y-93180928D02*
X125107143Y-93252357D01*
X125107143Y-93252357D02*
X125035714Y-93323785D01*
X125035714Y-93323785D02*
X124964285Y-93466642D01*
X124964285Y-93466642D02*
X124964285Y-93609500D01*
X124964285Y-93609500D02*
X125035714Y-93823785D01*
X125035714Y-93823785D02*
X125892857Y-94680928D01*
X125892857Y-94680928D02*
X124964285Y-94680928D01*
X124464286Y-93180928D02*
X123535714Y-93180928D01*
X123535714Y-93180928D02*
X124035714Y-93752357D01*
X124035714Y-93752357D02*
X123821429Y-93752357D01*
X123821429Y-93752357D02*
X123678572Y-93823785D01*
X123678572Y-93823785D02*
X123607143Y-93895214D01*
X123607143Y-93895214D02*
X123535714Y-94038071D01*
X123535714Y-94038071D02*
X123535714Y-94395214D01*
X123535714Y-94395214D02*
X123607143Y-94538071D01*
X123607143Y-94538071D02*
X123678572Y-94609500D01*
X123678572Y-94609500D02*
X123821429Y-94680928D01*
X123821429Y-94680928D02*
X124250000Y-94680928D01*
X124250000Y-94680928D02*
X124392857Y-94609500D01*
X124392857Y-94609500D02*
X124464286Y-94538071D01*
X123250001Y-94823785D02*
X122107143Y-94823785D01*
X121964286Y-93180928D02*
X121464286Y-94680928D01*
X121464286Y-94680928D02*
X120964286Y-93180928D01*
X119678572Y-94680928D02*
X120535715Y-94680928D01*
X120107144Y-94680928D02*
X120107144Y-93180928D01*
X120107144Y-93180928D02*
X120250001Y-93395214D01*
X120250001Y-93395214D02*
X120392858Y-93538071D01*
X120392858Y-93538071D02*
X120535715Y-93609500D01*
D11*
X144549997Y-99999520D02*
X144549997Y-99423330D01*
X144549997Y-99423330D02*
X144602378Y-99318568D01*
X144602378Y-99318568D02*
X144707140Y-99266187D01*
X144707140Y-99266187D02*
X144916664Y-99266187D01*
X144916664Y-99266187D02*
X145021426Y-99318568D01*
X144549997Y-99947140D02*
X144654759Y-99999520D01*
X144654759Y-99999520D02*
X144916664Y-99999520D01*
X144916664Y-99999520D02*
X145021426Y-99947140D01*
X145021426Y-99947140D02*
X145073807Y-99842378D01*
X145073807Y-99842378D02*
X145073807Y-99737616D01*
X145073807Y-99737616D02*
X145021426Y-99632854D01*
X145021426Y-99632854D02*
X144916664Y-99580473D01*
X144916664Y-99580473D02*
X144654759Y-99580473D01*
X144654759Y-99580473D02*
X144549997Y-99528092D01*
X144183331Y-99266187D02*
X143764283Y-99266187D01*
X144026188Y-99999520D02*
X144026188Y-99056663D01*
X144026188Y-99056663D02*
X143973807Y-98951901D01*
X143973807Y-98951901D02*
X143869045Y-98899520D01*
X143869045Y-98899520D02*
X143764283Y-98899520D01*
X143554760Y-99266187D02*
X143135712Y-99266187D01*
X143397617Y-98899520D02*
X143397617Y-99842378D01*
X143397617Y-99842378D02*
X143345236Y-99947140D01*
X143345236Y-99947140D02*
X143240474Y-99999520D01*
X143240474Y-99999520D02*
X143135712Y-99999520D01*
X142349998Y-99947140D02*
X142454760Y-99999520D01*
X142454760Y-99999520D02*
X142664284Y-99999520D01*
X142664284Y-99999520D02*
X142769046Y-99947140D01*
X142769046Y-99947140D02*
X142821427Y-99842378D01*
X142821427Y-99842378D02*
X142821427Y-99423330D01*
X142821427Y-99423330D02*
X142769046Y-99318568D01*
X142769046Y-99318568D02*
X142664284Y-99266187D01*
X142664284Y-99266187D02*
X142454760Y-99266187D01*
X142454760Y-99266187D02*
X142349998Y-99318568D01*
X142349998Y-99318568D02*
X142297617Y-99423330D01*
X142297617Y-99423330D02*
X142297617Y-99528092D01*
X142297617Y-99528092D02*
X142821427Y-99632854D01*
X141826189Y-99999520D02*
X141826189Y-99266187D01*
X141826189Y-99475711D02*
X141773808Y-99370949D01*
X141773808Y-99370949D02*
X141721427Y-99318568D01*
X141721427Y-99318568D02*
X141616665Y-99266187D01*
X141616665Y-99266187D02*
X141511903Y-99266187D01*
X139940475Y-99423330D02*
X139783332Y-99475711D01*
X139783332Y-99475711D02*
X139730951Y-99528092D01*
X139730951Y-99528092D02*
X139678570Y-99632854D01*
X139678570Y-99632854D02*
X139678570Y-99789997D01*
X139678570Y-99789997D02*
X139730951Y-99894759D01*
X139730951Y-99894759D02*
X139783332Y-99947140D01*
X139783332Y-99947140D02*
X139888094Y-99999520D01*
X139888094Y-99999520D02*
X140307142Y-99999520D01*
X140307142Y-99999520D02*
X140307142Y-98899520D01*
X140307142Y-98899520D02*
X139940475Y-98899520D01*
X139940475Y-98899520D02*
X139835713Y-98951901D01*
X139835713Y-98951901D02*
X139783332Y-99004282D01*
X139783332Y-99004282D02*
X139730951Y-99109044D01*
X139730951Y-99109044D02*
X139730951Y-99213806D01*
X139730951Y-99213806D02*
X139783332Y-99318568D01*
X139783332Y-99318568D02*
X139835713Y-99370949D01*
X139835713Y-99370949D02*
X139940475Y-99423330D01*
X139940475Y-99423330D02*
X140307142Y-99423330D01*
X139207142Y-99999520D02*
X139207142Y-98899520D01*
X139207142Y-98899520D02*
X138840475Y-99685235D01*
X138840475Y-99685235D02*
X138473808Y-98899520D01*
X138473808Y-98899520D02*
X138473808Y-99999520D01*
X138002380Y-99947140D02*
X137845237Y-99999520D01*
X137845237Y-99999520D02*
X137583332Y-99999520D01*
X137583332Y-99999520D02*
X137478570Y-99947140D01*
X137478570Y-99947140D02*
X137426189Y-99894759D01*
X137426189Y-99894759D02*
X137373808Y-99789997D01*
X137373808Y-99789997D02*
X137373808Y-99685235D01*
X137373808Y-99685235D02*
X137426189Y-99580473D01*
X137426189Y-99580473D02*
X137478570Y-99528092D01*
X137478570Y-99528092D02*
X137583332Y-99475711D01*
X137583332Y-99475711D02*
X137792856Y-99423330D01*
X137792856Y-99423330D02*
X137897618Y-99370949D01*
X137897618Y-99370949D02*
X137949999Y-99318568D01*
X137949999Y-99318568D02*
X138002380Y-99213806D01*
X138002380Y-99213806D02*
X138002380Y-99109044D01*
X138002380Y-99109044D02*
X137949999Y-99004282D01*
X137949999Y-99004282D02*
X137897618Y-98951901D01*
X137897618Y-98951901D02*
X137792856Y-98899520D01*
X137792856Y-98899520D02*
X137530951Y-98899520D01*
X137530951Y-98899520D02*
X137373808Y-98951901D01*
X137164285Y-100104282D02*
X136326189Y-100104282D01*
X135592856Y-99999520D02*
X135592856Y-99423330D01*
X135592856Y-99423330D02*
X135645237Y-99318568D01*
X135645237Y-99318568D02*
X135749999Y-99266187D01*
X135749999Y-99266187D02*
X135959523Y-99266187D01*
X135959523Y-99266187D02*
X136064285Y-99318568D01*
X135592856Y-99947140D02*
X135697618Y-99999520D01*
X135697618Y-99999520D02*
X135959523Y-99999520D01*
X135959523Y-99999520D02*
X136064285Y-99947140D01*
X136064285Y-99947140D02*
X136116666Y-99842378D01*
X136116666Y-99842378D02*
X136116666Y-99737616D01*
X136116666Y-99737616D02*
X136064285Y-99632854D01*
X136064285Y-99632854D02*
X135959523Y-99580473D01*
X135959523Y-99580473D02*
X135697618Y-99580473D01*
X135697618Y-99580473D02*
X135592856Y-99528092D01*
X134911904Y-99999520D02*
X135016666Y-99947140D01*
X135016666Y-99947140D02*
X135069047Y-99842378D01*
X135069047Y-99842378D02*
X135069047Y-98899520D01*
X134650000Y-99266187D02*
X134230952Y-99266187D01*
X134492857Y-98899520D02*
X134492857Y-99842378D01*
X134492857Y-99842378D02*
X134440476Y-99947140D01*
X134440476Y-99947140D02*
X134335714Y-99999520D01*
X134335714Y-99999520D02*
X134230952Y-99999520D01*
X133130953Y-99266187D02*
X132869048Y-99999520D01*
X132869048Y-99999520D02*
X132607143Y-99266187D01*
X131611905Y-99999520D02*
X132240477Y-99999520D01*
X131926191Y-99999520D02*
X131926191Y-98899520D01*
X131926191Y-98899520D02*
X132030953Y-99056663D01*
X132030953Y-99056663D02*
X132135715Y-99161425D01*
X132135715Y-99161425D02*
X132240477Y-99213806D01*
X131140477Y-99894759D02*
X131088096Y-99947140D01*
X131088096Y-99947140D02*
X131140477Y-99999520D01*
X131140477Y-99999520D02*
X131192858Y-99947140D01*
X131192858Y-99947140D02*
X131140477Y-99894759D01*
X131140477Y-99894759D02*
X131140477Y-99999520D01*
X130721429Y-98899520D02*
X129988095Y-98899520D01*
X129988095Y-98899520D02*
X130459524Y-99999520D01*
X128416667Y-100418568D02*
X128469048Y-100366187D01*
X128469048Y-100366187D02*
X128573810Y-100209044D01*
X128573810Y-100209044D02*
X128626191Y-100104282D01*
X128626191Y-100104282D02*
X128678572Y-99947140D01*
X128678572Y-99947140D02*
X128730953Y-99685235D01*
X128730953Y-99685235D02*
X128730953Y-99475711D01*
X128730953Y-99475711D02*
X128678572Y-99213806D01*
X128678572Y-99213806D02*
X128626191Y-99056663D01*
X128626191Y-99056663D02*
X128573810Y-98951901D01*
X128573810Y-98951901D02*
X128469048Y-98794759D01*
X128469048Y-98794759D02*
X128416667Y-98742378D01*
X127683334Y-98899520D02*
X127683334Y-99685235D01*
X127683334Y-99685235D02*
X127735715Y-99842378D01*
X127735715Y-99842378D02*
X127840477Y-99947140D01*
X127840477Y-99947140D02*
X127997620Y-99999520D01*
X127997620Y-99999520D02*
X128102382Y-99999520D01*
X126688096Y-99999520D02*
X126688096Y-99423330D01*
X126688096Y-99423330D02*
X126740477Y-99318568D01*
X126740477Y-99318568D02*
X126845239Y-99266187D01*
X126845239Y-99266187D02*
X127054763Y-99266187D01*
X127054763Y-99266187D02*
X127159525Y-99318568D01*
X126688096Y-99947140D02*
X126792858Y-99999520D01*
X126792858Y-99999520D02*
X127054763Y-99999520D01*
X127054763Y-99999520D02*
X127159525Y-99947140D01*
X127159525Y-99947140D02*
X127211906Y-99842378D01*
X127211906Y-99842378D02*
X127211906Y-99737616D01*
X127211906Y-99737616D02*
X127159525Y-99632854D01*
X127159525Y-99632854D02*
X127054763Y-99580473D01*
X127054763Y-99580473D02*
X126792858Y-99580473D01*
X126792858Y-99580473D02*
X126688096Y-99528092D01*
X125692858Y-99266187D02*
X125692858Y-99999520D01*
X126164287Y-99266187D02*
X126164287Y-99842378D01*
X126164287Y-99842378D02*
X126111906Y-99947140D01*
X126111906Y-99947140D02*
X126007144Y-99999520D01*
X126007144Y-99999520D02*
X125850001Y-99999520D01*
X125850001Y-99999520D02*
X125745239Y-99947140D01*
X125745239Y-99947140D02*
X125692858Y-99894759D01*
X124383334Y-98847140D02*
X125326192Y-100261425D01*
X124173811Y-98899520D02*
X123807144Y-99999520D01*
X123807144Y-99999520D02*
X123440477Y-98899520D01*
X122602382Y-99999520D02*
X122602382Y-99423330D01*
X122602382Y-99423330D02*
X122654763Y-99318568D01*
X122654763Y-99318568D02*
X122759525Y-99266187D01*
X122759525Y-99266187D02*
X122969049Y-99266187D01*
X122969049Y-99266187D02*
X123073811Y-99318568D01*
X122602382Y-99947140D02*
X122707144Y-99999520D01*
X122707144Y-99999520D02*
X122969049Y-99999520D01*
X122969049Y-99999520D02*
X123073811Y-99947140D01*
X123073811Y-99947140D02*
X123126192Y-99842378D01*
X123126192Y-99842378D02*
X123126192Y-99737616D01*
X123126192Y-99737616D02*
X123073811Y-99632854D01*
X123073811Y-99632854D02*
X122969049Y-99580473D01*
X122969049Y-99580473D02*
X122707144Y-99580473D01*
X122707144Y-99580473D02*
X122602382Y-99528092D01*
X122130954Y-99947140D02*
X122026192Y-99999520D01*
X122026192Y-99999520D02*
X121816668Y-99999520D01*
X121816668Y-99999520D02*
X121711906Y-99947140D01*
X121711906Y-99947140D02*
X121659525Y-99842378D01*
X121659525Y-99842378D02*
X121659525Y-99789997D01*
X121659525Y-99789997D02*
X121711906Y-99685235D01*
X121711906Y-99685235D02*
X121816668Y-99632854D01*
X121816668Y-99632854D02*
X121973811Y-99632854D01*
X121973811Y-99632854D02*
X122078573Y-99580473D01*
X122078573Y-99580473D02*
X122130954Y-99475711D01*
X122130954Y-99475711D02*
X122130954Y-99423330D01*
X122130954Y-99423330D02*
X122078573Y-99318568D01*
X122078573Y-99318568D02*
X121973811Y-99266187D01*
X121973811Y-99266187D02*
X121816668Y-99266187D01*
X121816668Y-99266187D02*
X121711906Y-99318568D01*
X121292859Y-100418568D02*
X121240478Y-100366187D01*
X121240478Y-100366187D02*
X121135716Y-100209044D01*
X121135716Y-100209044D02*
X121083335Y-100104282D01*
X121083335Y-100104282D02*
X121030954Y-99947140D01*
X121030954Y-99947140D02*
X120978573Y-99685235D01*
X120978573Y-99685235D02*
X120978573Y-99475711D01*
X120978573Y-99475711D02*
X121030954Y-99213806D01*
X121030954Y-99213806D02*
X121083335Y-99056663D01*
X121083335Y-99056663D02*
X121135716Y-98951901D01*
X121135716Y-98951901D02*
X121240478Y-98794759D01*
X121240478Y-98794759D02*
X121292859Y-98742378D01*
D12*
X67142857Y-88224200D02*
X64857143Y-88224200D01*
X66000000Y-89367057D02*
X66000000Y-87081342D01*
D13*
X137619048Y-104454819D02*
X137619048Y-105169104D01*
X137619048Y-105169104D02*
X137666667Y-105311961D01*
X137666667Y-105311961D02*
X137761905Y-105407200D01*
X137761905Y-105407200D02*
X137904762Y-105454819D01*
X137904762Y-105454819D02*
X138000000Y-105454819D01*
X136666667Y-105454819D02*
X137142857Y-105454819D01*
X137142857Y-105454819D02*
X137142857Y-104454819D01*
X135761905Y-105359580D02*
X135809524Y-105407200D01*
X135809524Y-105407200D02*
X135952381Y-105454819D01*
X135952381Y-105454819D02*
X136047619Y-105454819D01*
X136047619Y-105454819D02*
X136190476Y-105407200D01*
X136190476Y-105407200D02*
X136285714Y-105311961D01*
X136285714Y-105311961D02*
X136333333Y-105216723D01*
X136333333Y-105216723D02*
X136380952Y-105026247D01*
X136380952Y-105026247D02*
X136380952Y-104883390D01*
X136380952Y-104883390D02*
X136333333Y-104692914D01*
X136333333Y-104692914D02*
X136285714Y-104597676D01*
X136285714Y-104597676D02*
X136190476Y-104502438D01*
X136190476Y-104502438D02*
X136047619Y-104454819D01*
X136047619Y-104454819D02*
X135952381Y-104454819D01*
X135952381Y-104454819D02*
X135809524Y-104502438D01*
X135809524Y-104502438D02*
X135761905Y-104550057D01*
X135047619Y-104454819D02*
X135047619Y-105169104D01*
X135047619Y-105169104D02*
X135095238Y-105311961D01*
X135095238Y-105311961D02*
X135190476Y-105407200D01*
X135190476Y-105407200D02*
X135333333Y-105454819D01*
X135333333Y-105454819D02*
X135428571Y-105454819D01*
X134095238Y-105454819D02*
X134571428Y-105454819D01*
X134571428Y-105454819D02*
X134571428Y-104454819D01*
X133190476Y-105359580D02*
X133238095Y-105407200D01*
X133238095Y-105407200D02*
X133380952Y-105454819D01*
X133380952Y-105454819D02*
X133476190Y-105454819D01*
X133476190Y-105454819D02*
X133619047Y-105407200D01*
X133619047Y-105407200D02*
X133714285Y-105311961D01*
X133714285Y-105311961D02*
X133761904Y-105216723D01*
X133761904Y-105216723D02*
X133809523Y-105026247D01*
X133809523Y-105026247D02*
X133809523Y-104883390D01*
X133809523Y-104883390D02*
X133761904Y-104692914D01*
X133761904Y-104692914D02*
X133714285Y-104597676D01*
X133714285Y-104597676D02*
X133619047Y-104502438D01*
X133619047Y-104502438D02*
X133476190Y-104454819D01*
X133476190Y-104454819D02*
X133380952Y-104454819D01*
X133380952Y-104454819D02*
X133238095Y-104502438D01*
X133238095Y-104502438D02*
X133190476Y-104550057D01*
X132476190Y-104454819D02*
X132476190Y-105169104D01*
X132476190Y-105169104D02*
X132523809Y-105311961D01*
X132523809Y-105311961D02*
X132619047Y-105407200D01*
X132619047Y-105407200D02*
X132761904Y-105454819D01*
X132761904Y-105454819D02*
X132857142Y-105454819D01*
X131523809Y-105454819D02*
X131999999Y-105454819D01*
X131999999Y-105454819D02*
X131999999Y-104454819D01*
X130619047Y-105359580D02*
X130666666Y-105407200D01*
X130666666Y-105407200D02*
X130809523Y-105454819D01*
X130809523Y-105454819D02*
X130904761Y-105454819D01*
X130904761Y-105454819D02*
X131047618Y-105407200D01*
X131047618Y-105407200D02*
X131142856Y-105311961D01*
X131142856Y-105311961D02*
X131190475Y-105216723D01*
X131190475Y-105216723D02*
X131238094Y-105026247D01*
X131238094Y-105026247D02*
X131238094Y-104883390D01*
X131238094Y-104883390D02*
X131190475Y-104692914D01*
X131190475Y-104692914D02*
X131142856Y-104597676D01*
X131142856Y-104597676D02*
X131047618Y-104502438D01*
X131047618Y-104502438D02*
X130904761Y-104454819D01*
X130904761Y-104454819D02*
X130809523Y-104454819D01*
X130809523Y-104454819D02*
X130666666Y-104502438D01*
X130666666Y-104502438D02*
X130619047Y-104550057D01*
X129904761Y-104454819D02*
X129904761Y-105169104D01*
X129904761Y-105169104D02*
X129952380Y-105311961D01*
X129952380Y-105311961D02*
X130047618Y-105407200D01*
X130047618Y-105407200D02*
X130190475Y-105454819D01*
X130190475Y-105454819D02*
X130285713Y-105454819D01*
X128952380Y-105454819D02*
X129428570Y-105454819D01*
X129428570Y-105454819D02*
X129428570Y-104454819D01*
X128047618Y-105359580D02*
X128095237Y-105407200D01*
X128095237Y-105407200D02*
X128238094Y-105454819D01*
X128238094Y-105454819D02*
X128333332Y-105454819D01*
X128333332Y-105454819D02*
X128476189Y-105407200D01*
X128476189Y-105407200D02*
X128571427Y-105311961D01*
X128571427Y-105311961D02*
X128619046Y-105216723D01*
X128619046Y-105216723D02*
X128666665Y-105026247D01*
X128666665Y-105026247D02*
X128666665Y-104883390D01*
X128666665Y-104883390D02*
X128619046Y-104692914D01*
X128619046Y-104692914D02*
X128571427Y-104597676D01*
X128571427Y-104597676D02*
X128476189Y-104502438D01*
X128476189Y-104502438D02*
X128333332Y-104454819D01*
X128333332Y-104454819D02*
X128238094Y-104454819D01*
X128238094Y-104454819D02*
X128095237Y-104502438D01*
X128095237Y-104502438D02*
X128047618Y-104550057D01*
D12*
X178142857Y-88224200D02*
X175857143Y-88224200D01*
D11*
X152538093Y-97499520D02*
X152538093Y-96399520D01*
X152538093Y-96399520D02*
X152276188Y-96399520D01*
X152276188Y-96399520D02*
X152119045Y-96451901D01*
X152119045Y-96451901D02*
X152014283Y-96556663D01*
X152014283Y-96556663D02*
X151961902Y-96661425D01*
X151961902Y-96661425D02*
X151909521Y-96870949D01*
X151909521Y-96870949D02*
X151909521Y-97028092D01*
X151909521Y-97028092D02*
X151961902Y-97237616D01*
X151961902Y-97237616D02*
X152014283Y-97342378D01*
X152014283Y-97342378D02*
X152119045Y-97447140D01*
X152119045Y-97447140D02*
X152276188Y-97499520D01*
X152276188Y-97499520D02*
X152538093Y-97499520D01*
X151438093Y-97499520D02*
X151438093Y-96399520D01*
X150704759Y-96975711D02*
X150704759Y-97499520D01*
X151071426Y-96399520D02*
X150704759Y-96975711D01*
X150704759Y-96975711D02*
X150338092Y-96399520D01*
X149604759Y-96923330D02*
X149447616Y-96975711D01*
X149447616Y-96975711D02*
X149395235Y-97028092D01*
X149395235Y-97028092D02*
X149342854Y-97132854D01*
X149342854Y-97132854D02*
X149342854Y-97289997D01*
X149342854Y-97289997D02*
X149395235Y-97394759D01*
X149395235Y-97394759D02*
X149447616Y-97447140D01*
X149447616Y-97447140D02*
X149552378Y-97499520D01*
X149552378Y-97499520D02*
X149971426Y-97499520D01*
X149971426Y-97499520D02*
X149971426Y-96399520D01*
X149971426Y-96399520D02*
X149604759Y-96399520D01*
X149604759Y-96399520D02*
X149499997Y-96451901D01*
X149499997Y-96451901D02*
X149447616Y-96504282D01*
X149447616Y-96504282D02*
X149395235Y-96609044D01*
X149395235Y-96609044D02*
X149395235Y-96713806D01*
X149395235Y-96713806D02*
X149447616Y-96818568D01*
X149447616Y-96818568D02*
X149499997Y-96870949D01*
X149499997Y-96870949D02*
X149604759Y-96923330D01*
X149604759Y-96923330D02*
X149971426Y-96923330D01*
X148871426Y-97499520D02*
X148871426Y-96399520D01*
X148871426Y-96399520D02*
X148504759Y-97185235D01*
X148504759Y-97185235D02*
X148138092Y-96399520D01*
X148138092Y-96399520D02*
X148138092Y-97499520D01*
X147666664Y-97447140D02*
X147509521Y-97499520D01*
X147509521Y-97499520D02*
X147247616Y-97499520D01*
X147247616Y-97499520D02*
X147142854Y-97447140D01*
X147142854Y-97447140D02*
X147090473Y-97394759D01*
X147090473Y-97394759D02*
X147038092Y-97289997D01*
X147038092Y-97289997D02*
X147038092Y-97185235D01*
X147038092Y-97185235D02*
X147090473Y-97080473D01*
X147090473Y-97080473D02*
X147142854Y-97028092D01*
X147142854Y-97028092D02*
X147247616Y-96975711D01*
X147247616Y-96975711D02*
X147457140Y-96923330D01*
X147457140Y-96923330D02*
X147561902Y-96870949D01*
X147561902Y-96870949D02*
X147614283Y-96818568D01*
X147614283Y-96818568D02*
X147666664Y-96713806D01*
X147666664Y-96713806D02*
X147666664Y-96609044D01*
X147666664Y-96609044D02*
X147614283Y-96504282D01*
X147614283Y-96504282D02*
X147561902Y-96451901D01*
X147561902Y-96451901D02*
X147457140Y-96399520D01*
X147457140Y-96399520D02*
X147195235Y-96399520D01*
X147195235Y-96399520D02*
X147038092Y-96451901D01*
X145833331Y-96766187D02*
X145571426Y-97499520D01*
X145571426Y-97499520D02*
X145309521Y-96766187D01*
X144419045Y-96766187D02*
X144419045Y-97499520D01*
X144680950Y-96347140D02*
X144942855Y-97132854D01*
X144942855Y-97132854D02*
X144261902Y-97132854D01*
X143842855Y-97394759D02*
X143790474Y-97447140D01*
X143790474Y-97447140D02*
X143842855Y-97499520D01*
X143842855Y-97499520D02*
X143895236Y-97447140D01*
X143895236Y-97447140D02*
X143842855Y-97394759D01*
X143842855Y-97394759D02*
X143842855Y-97499520D01*
X142795235Y-96399520D02*
X143319045Y-96399520D01*
X143319045Y-96399520D02*
X143371426Y-96923330D01*
X143371426Y-96923330D02*
X143319045Y-96870949D01*
X143319045Y-96870949D02*
X143214283Y-96818568D01*
X143214283Y-96818568D02*
X142952378Y-96818568D01*
X142952378Y-96818568D02*
X142847616Y-96870949D01*
X142847616Y-96870949D02*
X142795235Y-96923330D01*
X142795235Y-96923330D02*
X142742854Y-97028092D01*
X142742854Y-97028092D02*
X142742854Y-97289997D01*
X142742854Y-97289997D02*
X142795235Y-97394759D01*
X142795235Y-97394759D02*
X142847616Y-97447140D01*
X142847616Y-97447140D02*
X142952378Y-97499520D01*
X142952378Y-97499520D02*
X143214283Y-97499520D01*
X143214283Y-97499520D02*
X143319045Y-97447140D01*
X143319045Y-97447140D02*
X143371426Y-97394759D01*
X140961902Y-97447140D02*
X141066664Y-97499520D01*
X141066664Y-97499520D02*
X141276188Y-97499520D01*
X141276188Y-97499520D02*
X141380950Y-97447140D01*
X141380950Y-97447140D02*
X141433331Y-97394759D01*
X141433331Y-97394759D02*
X141485712Y-97289997D01*
X141485712Y-97289997D02*
X141485712Y-96975711D01*
X141485712Y-96975711D02*
X141433331Y-96870949D01*
X141433331Y-96870949D02*
X141380950Y-96818568D01*
X141380950Y-96818568D02*
X141276188Y-96766187D01*
X141276188Y-96766187D02*
X141066664Y-96766187D01*
X141066664Y-96766187D02*
X140961902Y-96818568D01*
X140071426Y-97447140D02*
X140176188Y-97499520D01*
X140176188Y-97499520D02*
X140385712Y-97499520D01*
X140385712Y-97499520D02*
X140490474Y-97447140D01*
X140490474Y-97447140D02*
X140542855Y-97342378D01*
X140542855Y-97342378D02*
X140542855Y-96923330D01*
X140542855Y-96923330D02*
X140490474Y-96818568D01*
X140490474Y-96818568D02*
X140385712Y-96766187D01*
X140385712Y-96766187D02*
X140176188Y-96766187D01*
X140176188Y-96766187D02*
X140071426Y-96818568D01*
X140071426Y-96818568D02*
X140019045Y-96923330D01*
X140019045Y-96923330D02*
X140019045Y-97028092D01*
X140019045Y-97028092D02*
X140542855Y-97132854D01*
X139390474Y-97499520D02*
X139495236Y-97447140D01*
X139495236Y-97447140D02*
X139547617Y-97342378D01*
X139547617Y-97342378D02*
X139547617Y-96399520D01*
X138814284Y-97499520D02*
X138919046Y-97447140D01*
X138919046Y-97447140D02*
X138971427Y-97342378D01*
X138971427Y-97342378D02*
X138971427Y-96399520D01*
X137557142Y-97499520D02*
X137557142Y-96766187D01*
X137557142Y-96870949D02*
X137504761Y-96818568D01*
X137504761Y-96818568D02*
X137399999Y-96766187D01*
X137399999Y-96766187D02*
X137242856Y-96766187D01*
X137242856Y-96766187D02*
X137138094Y-96818568D01*
X137138094Y-96818568D02*
X137085713Y-96923330D01*
X137085713Y-96923330D02*
X137085713Y-97499520D01*
X137085713Y-96923330D02*
X137033332Y-96818568D01*
X137033332Y-96818568D02*
X136928570Y-96766187D01*
X136928570Y-96766187D02*
X136771427Y-96766187D01*
X136771427Y-96766187D02*
X136666666Y-96818568D01*
X136666666Y-96818568D02*
X136614285Y-96923330D01*
X136614285Y-96923330D02*
X136614285Y-97499520D01*
X135933332Y-97499520D02*
X136038094Y-97447140D01*
X136038094Y-97447140D02*
X136090475Y-97394759D01*
X136090475Y-97394759D02*
X136142856Y-97289997D01*
X136142856Y-97289997D02*
X136142856Y-96975711D01*
X136142856Y-96975711D02*
X136090475Y-96870949D01*
X136090475Y-96870949D02*
X136038094Y-96818568D01*
X136038094Y-96818568D02*
X135933332Y-96766187D01*
X135933332Y-96766187D02*
X135776189Y-96766187D01*
X135776189Y-96766187D02*
X135671427Y-96818568D01*
X135671427Y-96818568D02*
X135619046Y-96870949D01*
X135619046Y-96870949D02*
X135566665Y-96975711D01*
X135566665Y-96975711D02*
X135566665Y-97289997D01*
X135566665Y-97289997D02*
X135619046Y-97394759D01*
X135619046Y-97394759D02*
X135671427Y-97447140D01*
X135671427Y-97447140D02*
X135776189Y-97499520D01*
X135776189Y-97499520D02*
X135933332Y-97499520D01*
X134623808Y-97499520D02*
X134623808Y-96399520D01*
X134623808Y-97447140D02*
X134728570Y-97499520D01*
X134728570Y-97499520D02*
X134938094Y-97499520D01*
X134938094Y-97499520D02*
X135042856Y-97447140D01*
X135042856Y-97447140D02*
X135095237Y-97394759D01*
X135095237Y-97394759D02*
X135147618Y-97289997D01*
X135147618Y-97289997D02*
X135147618Y-96975711D01*
X135147618Y-96975711D02*
X135095237Y-96870949D01*
X135095237Y-96870949D02*
X135042856Y-96818568D01*
X135042856Y-96818568D02*
X134938094Y-96766187D01*
X134938094Y-96766187D02*
X134728570Y-96766187D01*
X134728570Y-96766187D02*
X134623808Y-96818568D01*
X133628570Y-96766187D02*
X133628570Y-97499520D01*
X134099999Y-96766187D02*
X134099999Y-97342378D01*
X134099999Y-97342378D02*
X134047618Y-97447140D01*
X134047618Y-97447140D02*
X133942856Y-97499520D01*
X133942856Y-97499520D02*
X133785713Y-97499520D01*
X133785713Y-97499520D02*
X133680951Y-97447140D01*
X133680951Y-97447140D02*
X133628570Y-97394759D01*
X132947618Y-97499520D02*
X133052380Y-97447140D01*
X133052380Y-97447140D02*
X133104761Y-97342378D01*
X133104761Y-97342378D02*
X133104761Y-96399520D01*
X132109523Y-97447140D02*
X132214285Y-97499520D01*
X132214285Y-97499520D02*
X132423809Y-97499520D01*
X132423809Y-97499520D02*
X132528571Y-97447140D01*
X132528571Y-97447140D02*
X132580952Y-97342378D01*
X132580952Y-97342378D02*
X132580952Y-96923330D01*
X132580952Y-96923330D02*
X132528571Y-96818568D01*
X132528571Y-96818568D02*
X132423809Y-96766187D01*
X132423809Y-96766187D02*
X132214285Y-96766187D01*
X132214285Y-96766187D02*
X132109523Y-96818568D01*
X132109523Y-96818568D02*
X132057142Y-96923330D01*
X132057142Y-96923330D02*
X132057142Y-97028092D01*
X132057142Y-97028092D02*
X132580952Y-97132854D01*
X131533333Y-97447140D02*
X131533333Y-97499520D01*
X131533333Y-97499520D02*
X131585714Y-97604282D01*
X131585714Y-97604282D02*
X131638095Y-97656663D01*
X129647618Y-97499520D02*
X130276190Y-97499520D01*
X129961904Y-97499520D02*
X129961904Y-96399520D01*
X129961904Y-96399520D02*
X130066666Y-96556663D01*
X130066666Y-96556663D02*
X130171428Y-96661425D01*
X130171428Y-96661425D02*
X130276190Y-96713806D01*
X129228571Y-96504282D02*
X129176190Y-96451901D01*
X129176190Y-96451901D02*
X129071428Y-96399520D01*
X129071428Y-96399520D02*
X128809523Y-96399520D01*
X128809523Y-96399520D02*
X128704761Y-96451901D01*
X128704761Y-96451901D02*
X128652380Y-96504282D01*
X128652380Y-96504282D02*
X128599999Y-96609044D01*
X128599999Y-96609044D02*
X128599999Y-96713806D01*
X128599999Y-96713806D02*
X128652380Y-96870949D01*
X128652380Y-96870949D02*
X129280952Y-97499520D01*
X129280952Y-97499520D02*
X128599999Y-97499520D01*
X128233333Y-96399520D02*
X127552380Y-96399520D01*
X127552380Y-96399520D02*
X127919047Y-96818568D01*
X127919047Y-96818568D02*
X127761904Y-96818568D01*
X127761904Y-96818568D02*
X127657142Y-96870949D01*
X127657142Y-96870949D02*
X127604761Y-96923330D01*
X127604761Y-96923330D02*
X127552380Y-97028092D01*
X127552380Y-97028092D02*
X127552380Y-97289997D01*
X127552380Y-97289997D02*
X127604761Y-97394759D01*
X127604761Y-97394759D02*
X127657142Y-97447140D01*
X127657142Y-97447140D02*
X127761904Y-97499520D01*
X127761904Y-97499520D02*
X128076190Y-97499520D01*
X128076190Y-97499520D02*
X128180952Y-97447140D01*
X128180952Y-97447140D02*
X128233333Y-97394759D01*
X127080952Y-97499520D02*
X127080952Y-96766187D01*
X127080952Y-96870949D02*
X127028571Y-96818568D01*
X127028571Y-96818568D02*
X126923809Y-96766187D01*
X126923809Y-96766187D02*
X126766666Y-96766187D01*
X126766666Y-96766187D02*
X126661904Y-96818568D01*
X126661904Y-96818568D02*
X126609523Y-96923330D01*
X126609523Y-96923330D02*
X126609523Y-97499520D01*
X126609523Y-96923330D02*
X126557142Y-96818568D01*
X126557142Y-96818568D02*
X126452380Y-96766187D01*
X126452380Y-96766187D02*
X126295237Y-96766187D01*
X126295237Y-96766187D02*
X126190476Y-96818568D01*
X126190476Y-96818568D02*
X126138095Y-96923330D01*
X126138095Y-96923330D02*
X126138095Y-97499520D01*
X125614285Y-97499520D02*
X125614285Y-96766187D01*
X125614285Y-96870949D02*
X125561904Y-96818568D01*
X125561904Y-96818568D02*
X125457142Y-96766187D01*
X125457142Y-96766187D02*
X125299999Y-96766187D01*
X125299999Y-96766187D02*
X125195237Y-96818568D01*
X125195237Y-96818568D02*
X125142856Y-96923330D01*
X125142856Y-96923330D02*
X125142856Y-97499520D01*
X125142856Y-96923330D02*
X125090475Y-96818568D01*
X125090475Y-96818568D02*
X124985713Y-96766187D01*
X124985713Y-96766187D02*
X124828570Y-96766187D01*
X124828570Y-96766187D02*
X124723809Y-96818568D01*
X124723809Y-96818568D02*
X124671428Y-96923330D01*
X124671428Y-96923330D02*
X124671428Y-97499520D01*
X123309523Y-97499520D02*
X123309523Y-96399520D01*
X123309523Y-96818568D02*
X123204761Y-96766187D01*
X123204761Y-96766187D02*
X122995237Y-96766187D01*
X122995237Y-96766187D02*
X122890475Y-96818568D01*
X122890475Y-96818568D02*
X122838094Y-96870949D01*
X122838094Y-96870949D02*
X122785713Y-96975711D01*
X122785713Y-96975711D02*
X122785713Y-97289997D01*
X122785713Y-97289997D02*
X122838094Y-97394759D01*
X122838094Y-97394759D02*
X122890475Y-97447140D01*
X122890475Y-97447140D02*
X122995237Y-97499520D01*
X122995237Y-97499520D02*
X123204761Y-97499520D01*
X123204761Y-97499520D02*
X123309523Y-97447140D01*
X122157142Y-97499520D02*
X122261904Y-97447140D01*
X122261904Y-97447140D02*
X122314285Y-97394759D01*
X122314285Y-97394759D02*
X122366666Y-97289997D01*
X122366666Y-97289997D02*
X122366666Y-96975711D01*
X122366666Y-96975711D02*
X122314285Y-96870949D01*
X122314285Y-96870949D02*
X122261904Y-96818568D01*
X122261904Y-96818568D02*
X122157142Y-96766187D01*
X122157142Y-96766187D02*
X121999999Y-96766187D01*
X121999999Y-96766187D02*
X121895237Y-96818568D01*
X121895237Y-96818568D02*
X121842856Y-96870949D01*
X121842856Y-96870949D02*
X121790475Y-96975711D01*
X121790475Y-96975711D02*
X121790475Y-97289997D01*
X121790475Y-97289997D02*
X121842856Y-97394759D01*
X121842856Y-97394759D02*
X121895237Y-97447140D01*
X121895237Y-97447140D02*
X121999999Y-97499520D01*
X121999999Y-97499520D02*
X122157142Y-97499520D01*
X121161904Y-97499520D02*
X121266666Y-97447140D01*
X121266666Y-97447140D02*
X121319047Y-97342378D01*
X121319047Y-97342378D02*
X121319047Y-96399520D01*
X120900000Y-96766187D02*
X120480952Y-96766187D01*
X120742857Y-96399520D02*
X120742857Y-97342378D01*
X120742857Y-97342378D02*
X120690476Y-97447140D01*
X120690476Y-97447140D02*
X120585714Y-97499520D01*
X120585714Y-97499520D02*
X120480952Y-97499520D01*
X119328572Y-97447140D02*
X119223810Y-97499520D01*
X119223810Y-97499520D02*
X119014286Y-97499520D01*
X119014286Y-97499520D02*
X118909524Y-97447140D01*
X118909524Y-97447140D02*
X118857143Y-97342378D01*
X118857143Y-97342378D02*
X118857143Y-97289997D01*
X118857143Y-97289997D02*
X118909524Y-97185235D01*
X118909524Y-97185235D02*
X119014286Y-97132854D01*
X119014286Y-97132854D02*
X119171429Y-97132854D01*
X119171429Y-97132854D02*
X119276191Y-97080473D01*
X119276191Y-97080473D02*
X119328572Y-96975711D01*
X119328572Y-96975711D02*
X119328572Y-96923330D01*
X119328572Y-96923330D02*
X119276191Y-96818568D01*
X119276191Y-96818568D02*
X119171429Y-96766187D01*
X119171429Y-96766187D02*
X119014286Y-96766187D01*
X119014286Y-96766187D02*
X118909524Y-96818568D01*
X118385715Y-96766187D02*
X118385715Y-97866187D01*
X118385715Y-96818568D02*
X118280953Y-96766187D01*
X118280953Y-96766187D02*
X118071429Y-96766187D01*
X118071429Y-96766187D02*
X117966667Y-96818568D01*
X117966667Y-96818568D02*
X117914286Y-96870949D01*
X117914286Y-96870949D02*
X117861905Y-96975711D01*
X117861905Y-96975711D02*
X117861905Y-97289997D01*
X117861905Y-97289997D02*
X117914286Y-97394759D01*
X117914286Y-97394759D02*
X117966667Y-97447140D01*
X117966667Y-97447140D02*
X118071429Y-97499520D01*
X118071429Y-97499520D02*
X118280953Y-97499520D01*
X118280953Y-97499520D02*
X118385715Y-97447140D01*
X116919048Y-97499520D02*
X116919048Y-96923330D01*
X116919048Y-96923330D02*
X116971429Y-96818568D01*
X116971429Y-96818568D02*
X117076191Y-96766187D01*
X117076191Y-96766187D02*
X117285715Y-96766187D01*
X117285715Y-96766187D02*
X117390477Y-96818568D01*
X116919048Y-97447140D02*
X117023810Y-97499520D01*
X117023810Y-97499520D02*
X117285715Y-97499520D01*
X117285715Y-97499520D02*
X117390477Y-97447140D01*
X117390477Y-97447140D02*
X117442858Y-97342378D01*
X117442858Y-97342378D02*
X117442858Y-97237616D01*
X117442858Y-97237616D02*
X117390477Y-97132854D01*
X117390477Y-97132854D02*
X117285715Y-97080473D01*
X117285715Y-97080473D02*
X117023810Y-97080473D01*
X117023810Y-97080473D02*
X116919048Y-97028092D01*
X115923810Y-97447140D02*
X116028572Y-97499520D01*
X116028572Y-97499520D02*
X116238096Y-97499520D01*
X116238096Y-97499520D02*
X116342858Y-97447140D01*
X116342858Y-97447140D02*
X116395239Y-97394759D01*
X116395239Y-97394759D02*
X116447620Y-97289997D01*
X116447620Y-97289997D02*
X116447620Y-96975711D01*
X116447620Y-96975711D02*
X116395239Y-96870949D01*
X116395239Y-96870949D02*
X116342858Y-96818568D01*
X116342858Y-96818568D02*
X116238096Y-96766187D01*
X116238096Y-96766187D02*
X116028572Y-96766187D01*
X116028572Y-96766187D02*
X115923810Y-96818568D01*
X115452382Y-97499520D02*
X115452382Y-96766187D01*
X115452382Y-96399520D02*
X115504763Y-96451901D01*
X115504763Y-96451901D02*
X115452382Y-96504282D01*
X115452382Y-96504282D02*
X115400001Y-96451901D01*
X115400001Y-96451901D02*
X115452382Y-96399520D01*
X115452382Y-96399520D02*
X115452382Y-96504282D01*
X114928572Y-96766187D02*
X114928572Y-97499520D01*
X114928572Y-96870949D02*
X114876191Y-96818568D01*
X114876191Y-96818568D02*
X114771429Y-96766187D01*
X114771429Y-96766187D02*
X114614286Y-96766187D01*
X114614286Y-96766187D02*
X114509524Y-96818568D01*
X114509524Y-96818568D02*
X114457143Y-96923330D01*
X114457143Y-96923330D02*
X114457143Y-97499520D01*
X113461905Y-96766187D02*
X113461905Y-97656663D01*
X113461905Y-97656663D02*
X113514286Y-97761425D01*
X113514286Y-97761425D02*
X113566667Y-97813806D01*
X113566667Y-97813806D02*
X113671429Y-97866187D01*
X113671429Y-97866187D02*
X113828572Y-97866187D01*
X113828572Y-97866187D02*
X113933334Y-97813806D01*
X113461905Y-97447140D02*
X113566667Y-97499520D01*
X113566667Y-97499520D02*
X113776191Y-97499520D01*
X113776191Y-97499520D02*
X113880953Y-97447140D01*
X113880953Y-97447140D02*
X113933334Y-97394759D01*
X113933334Y-97394759D02*
X113985715Y-97289997D01*
X113985715Y-97289997D02*
X113985715Y-96975711D01*
X113985715Y-96975711D02*
X113933334Y-96870949D01*
X113933334Y-96870949D02*
X113880953Y-96818568D01*
X113880953Y-96818568D02*
X113776191Y-96766187D01*
X113776191Y-96766187D02*
X113566667Y-96766187D01*
X113566667Y-96766187D02*
X113461905Y-96818568D01*
X146488093Y-102499520D02*
X146592855Y-102447140D01*
X146592855Y-102447140D02*
X146645236Y-102342378D01*
X146645236Y-102342378D02*
X146645236Y-101399520D01*
X145911903Y-102499520D02*
X146016665Y-102447140D01*
X146016665Y-102447140D02*
X146069046Y-102394759D01*
X146069046Y-102394759D02*
X146121427Y-102289997D01*
X146121427Y-102289997D02*
X146121427Y-101975711D01*
X146121427Y-101975711D02*
X146069046Y-101870949D01*
X146069046Y-101870949D02*
X146016665Y-101818568D01*
X146016665Y-101818568D02*
X145911903Y-101766187D01*
X145911903Y-101766187D02*
X145754760Y-101766187D01*
X145754760Y-101766187D02*
X145649998Y-101818568D01*
X145649998Y-101818568D02*
X145597617Y-101870949D01*
X145597617Y-101870949D02*
X145545236Y-101975711D01*
X145545236Y-101975711D02*
X145545236Y-102289997D01*
X145545236Y-102289997D02*
X145597617Y-102394759D01*
X145597617Y-102394759D02*
X145649998Y-102447140D01*
X145649998Y-102447140D02*
X145754760Y-102499520D01*
X145754760Y-102499520D02*
X145911903Y-102499520D01*
X144602379Y-102499520D02*
X144602379Y-101923330D01*
X144602379Y-101923330D02*
X144654760Y-101818568D01*
X144654760Y-101818568D02*
X144759522Y-101766187D01*
X144759522Y-101766187D02*
X144969046Y-101766187D01*
X144969046Y-101766187D02*
X145073808Y-101818568D01*
X144602379Y-102447140D02*
X144707141Y-102499520D01*
X144707141Y-102499520D02*
X144969046Y-102499520D01*
X144969046Y-102499520D02*
X145073808Y-102447140D01*
X145073808Y-102447140D02*
X145126189Y-102342378D01*
X145126189Y-102342378D02*
X145126189Y-102237616D01*
X145126189Y-102237616D02*
X145073808Y-102132854D01*
X145073808Y-102132854D02*
X144969046Y-102080473D01*
X144969046Y-102080473D02*
X144707141Y-102080473D01*
X144707141Y-102080473D02*
X144602379Y-102028092D01*
X143607141Y-102499520D02*
X143607141Y-101399520D01*
X143607141Y-102447140D02*
X143711903Y-102499520D01*
X143711903Y-102499520D02*
X143921427Y-102499520D01*
X143921427Y-102499520D02*
X144026189Y-102447140D01*
X144026189Y-102447140D02*
X144078570Y-102394759D01*
X144078570Y-102394759D02*
X144130951Y-102289997D01*
X144130951Y-102289997D02*
X144130951Y-101975711D01*
X144130951Y-101975711D02*
X144078570Y-101870949D01*
X144078570Y-101870949D02*
X144026189Y-101818568D01*
X144026189Y-101818568D02*
X143921427Y-101766187D01*
X143921427Y-101766187D02*
X143711903Y-101766187D01*
X143711903Y-101766187D02*
X143607141Y-101818568D01*
X141773808Y-101766187D02*
X141773808Y-102499520D01*
X142035713Y-101347140D02*
X142297618Y-102132854D01*
X142297618Y-102132854D02*
X141616665Y-102132854D01*
X141249999Y-102447140D02*
X141092856Y-102499520D01*
X141092856Y-102499520D02*
X140830951Y-102499520D01*
X140830951Y-102499520D02*
X140726189Y-102447140D01*
X140726189Y-102447140D02*
X140673808Y-102394759D01*
X140673808Y-102394759D02*
X140621427Y-102289997D01*
X140621427Y-102289997D02*
X140621427Y-102185235D01*
X140621427Y-102185235D02*
X140673808Y-102080473D01*
X140673808Y-102080473D02*
X140726189Y-102028092D01*
X140726189Y-102028092D02*
X140830951Y-101975711D01*
X140830951Y-101975711D02*
X141040475Y-101923330D01*
X141040475Y-101923330D02*
X141145237Y-101870949D01*
X141145237Y-101870949D02*
X141197618Y-101818568D01*
X141197618Y-101818568D02*
X141249999Y-101713806D01*
X141249999Y-101713806D02*
X141249999Y-101609044D01*
X141249999Y-101609044D02*
X141197618Y-101504282D01*
X141197618Y-101504282D02*
X141145237Y-101451901D01*
X141145237Y-101451901D02*
X141040475Y-101399520D01*
X141040475Y-101399520D02*
X140778570Y-101399520D01*
X140778570Y-101399520D02*
X140621427Y-101451901D01*
X139678570Y-101766187D02*
X139678570Y-102499520D01*
X139940475Y-101347140D02*
X140202380Y-102132854D01*
X140202380Y-102132854D02*
X139521427Y-102132854D01*
X139102380Y-102499520D02*
X139102380Y-101399520D01*
X139102380Y-101399520D02*
X138683332Y-101399520D01*
X138683332Y-101399520D02*
X138578570Y-101451901D01*
X138578570Y-101451901D02*
X138526189Y-101504282D01*
X138526189Y-101504282D02*
X138473808Y-101609044D01*
X138473808Y-101609044D02*
X138473808Y-101766187D01*
X138473808Y-101766187D02*
X138526189Y-101870949D01*
X138526189Y-101870949D02*
X138578570Y-101923330D01*
X138578570Y-101923330D02*
X138683332Y-101975711D01*
X138683332Y-101975711D02*
X139102380Y-101975711D01*
X136588094Y-102499520D02*
X137216666Y-102499520D01*
X136902380Y-102499520D02*
X136902380Y-101399520D01*
X136902380Y-101399520D02*
X137007142Y-101556663D01*
X137007142Y-101556663D02*
X137111904Y-101661425D01*
X137111904Y-101661425D02*
X137216666Y-101713806D01*
X135645237Y-101399520D02*
X135854761Y-101399520D01*
X135854761Y-101399520D02*
X135959523Y-101451901D01*
X135959523Y-101451901D02*
X136011904Y-101504282D01*
X136011904Y-101504282D02*
X136116666Y-101661425D01*
X136116666Y-101661425D02*
X136169047Y-101870949D01*
X136169047Y-101870949D02*
X136169047Y-102289997D01*
X136169047Y-102289997D02*
X136116666Y-102394759D01*
X136116666Y-102394759D02*
X136064285Y-102447140D01*
X136064285Y-102447140D02*
X135959523Y-102499520D01*
X135959523Y-102499520D02*
X135749999Y-102499520D01*
X135749999Y-102499520D02*
X135645237Y-102447140D01*
X135645237Y-102447140D02*
X135592856Y-102394759D01*
X135592856Y-102394759D02*
X135540475Y-102289997D01*
X135540475Y-102289997D02*
X135540475Y-102028092D01*
X135540475Y-102028092D02*
X135592856Y-101923330D01*
X135592856Y-101923330D02*
X135645237Y-101870949D01*
X135645237Y-101870949D02*
X135749999Y-101818568D01*
X135749999Y-101818568D02*
X135959523Y-101818568D01*
X135959523Y-101818568D02*
X136064285Y-101870949D01*
X136064285Y-101870949D02*
X136116666Y-101923330D01*
X136116666Y-101923330D02*
X136169047Y-102028092D01*
X135173809Y-102499520D02*
X134597618Y-101766187D01*
X135173809Y-101766187D02*
X134597618Y-102499520D01*
X132764285Y-102499520D02*
X133392857Y-102499520D01*
X133078571Y-102499520D02*
X133078571Y-101399520D01*
X133078571Y-101399520D02*
X133183333Y-101556663D01*
X133183333Y-101556663D02*
X133288095Y-101661425D01*
X133288095Y-101661425D02*
X133392857Y-101713806D01*
X131664285Y-102499520D02*
X132030952Y-101975711D01*
X132292857Y-102499520D02*
X132292857Y-101399520D01*
X132292857Y-101399520D02*
X131873809Y-101399520D01*
X131873809Y-101399520D02*
X131769047Y-101451901D01*
X131769047Y-101451901D02*
X131716666Y-101504282D01*
X131716666Y-101504282D02*
X131664285Y-101609044D01*
X131664285Y-101609044D02*
X131664285Y-101766187D01*
X131664285Y-101766187D02*
X131716666Y-101870949D01*
X131716666Y-101870949D02*
X131769047Y-101923330D01*
X131769047Y-101923330D02*
X131873809Y-101975711D01*
X131873809Y-101975711D02*
X132292857Y-101975711D01*
X131245238Y-101504282D02*
X131192857Y-101451901D01*
X131192857Y-101451901D02*
X131088095Y-101399520D01*
X131088095Y-101399520D02*
X130826190Y-101399520D01*
X130826190Y-101399520D02*
X130721428Y-101451901D01*
X130721428Y-101451901D02*
X130669047Y-101504282D01*
X130669047Y-101504282D02*
X130616666Y-101609044D01*
X130616666Y-101609044D02*
X130616666Y-101713806D01*
X130616666Y-101713806D02*
X130669047Y-101870949D01*
X130669047Y-101870949D02*
X131297619Y-102499520D01*
X131297619Y-102499520D02*
X130616666Y-102499520D01*
X129307143Y-101923330D02*
X128469048Y-101923330D01*
X128469048Y-102237616D02*
X129307143Y-102237616D01*
X126530952Y-102499520D02*
X127159524Y-102499520D01*
X126845238Y-102499520D02*
X126845238Y-101399520D01*
X126845238Y-101399520D02*
X126950000Y-101556663D01*
X126950000Y-101556663D02*
X127054762Y-101661425D01*
X127054762Y-101661425D02*
X127159524Y-101713806D01*
X125430952Y-102499520D02*
X125797619Y-101975711D01*
X126059524Y-102499520D02*
X126059524Y-101399520D01*
X126059524Y-101399520D02*
X125640476Y-101399520D01*
X125640476Y-101399520D02*
X125535714Y-101451901D01*
X125535714Y-101451901D02*
X125483333Y-101504282D01*
X125483333Y-101504282D02*
X125430952Y-101609044D01*
X125430952Y-101609044D02*
X125430952Y-101766187D01*
X125430952Y-101766187D02*
X125483333Y-101870949D01*
X125483333Y-101870949D02*
X125535714Y-101923330D01*
X125535714Y-101923330D02*
X125640476Y-101975711D01*
X125640476Y-101975711D02*
X126059524Y-101975711D01*
X125011905Y-101504282D02*
X124959524Y-101451901D01*
X124959524Y-101451901D02*
X124854762Y-101399520D01*
X124854762Y-101399520D02*
X124592857Y-101399520D01*
X124592857Y-101399520D02*
X124488095Y-101451901D01*
X124488095Y-101451901D02*
X124435714Y-101504282D01*
X124435714Y-101504282D02*
X124383333Y-101609044D01*
X124383333Y-101609044D02*
X124383333Y-101713806D01*
X124383333Y-101713806D02*
X124435714Y-101870949D01*
X124435714Y-101870949D02*
X125064286Y-102499520D01*
X125064286Y-102499520D02*
X124383333Y-102499520D01*
X122759524Y-102918568D02*
X122811905Y-102866187D01*
X122811905Y-102866187D02*
X122916667Y-102709044D01*
X122916667Y-102709044D02*
X122969048Y-102604282D01*
X122969048Y-102604282D02*
X123021429Y-102447140D01*
X123021429Y-102447140D02*
X123073810Y-102185235D01*
X123073810Y-102185235D02*
X123073810Y-101975711D01*
X123073810Y-101975711D02*
X123021429Y-101713806D01*
X123021429Y-101713806D02*
X122969048Y-101556663D01*
X122969048Y-101556663D02*
X122916667Y-101451901D01*
X122916667Y-101451901D02*
X122811905Y-101294759D01*
X122811905Y-101294759D02*
X122759524Y-101242378D01*
X122497620Y-102080473D02*
X122445239Y-102028092D01*
X122445239Y-102028092D02*
X122340477Y-101975711D01*
X122340477Y-101975711D02*
X122130953Y-102080473D01*
X122130953Y-102080473D02*
X122026191Y-102028092D01*
X122026191Y-102028092D02*
X121973810Y-101975711D01*
X121659525Y-101399520D02*
X120978572Y-101399520D01*
X120978572Y-101399520D02*
X121345239Y-101818568D01*
X121345239Y-101818568D02*
X121188096Y-101818568D01*
X121188096Y-101818568D02*
X121083334Y-101870949D01*
X121083334Y-101870949D02*
X121030953Y-101923330D01*
X121030953Y-101923330D02*
X120978572Y-102028092D01*
X120978572Y-102028092D02*
X120978572Y-102289997D01*
X120978572Y-102289997D02*
X121030953Y-102394759D01*
X121030953Y-102394759D02*
X121083334Y-102447140D01*
X121083334Y-102447140D02*
X121188096Y-102499520D01*
X121188096Y-102499520D02*
X121502382Y-102499520D01*
X121502382Y-102499520D02*
X121607144Y-102447140D01*
X121607144Y-102447140D02*
X121659525Y-102394759D01*
X120559525Y-102185235D02*
X120035715Y-102185235D01*
X120664287Y-102499520D02*
X120297620Y-101399520D01*
X120297620Y-101399520D02*
X119930953Y-102499520D01*
X119669049Y-102918568D02*
X119616668Y-102866187D01*
X119616668Y-102866187D02*
X119511906Y-102709044D01*
X119511906Y-102709044D02*
X119459525Y-102604282D01*
X119459525Y-102604282D02*
X119407144Y-102447140D01*
X119407144Y-102447140D02*
X119354763Y-102185235D01*
X119354763Y-102185235D02*
X119354763Y-101975711D01*
X119354763Y-101975711D02*
X119407144Y-101713806D01*
X119407144Y-101713806D02*
X119459525Y-101556663D01*
X119459525Y-101556663D02*
X119511906Y-101451901D01*
X119511906Y-101451901D02*
X119616668Y-101294759D01*
X119616668Y-101294759D02*
X119669049Y-101242378D01*
G04 #@! TO.C,G1*
D14*
X80751976Y-94066239D02*
X80833947Y-94089030D01*
X80901625Y-94131652D01*
X80928939Y-94162991D01*
X80963298Y-94220112D01*
X80988080Y-94281229D01*
X80996969Y-94333000D01*
X80995367Y-94353997D01*
X80990578Y-94350987D01*
X80980453Y-94319024D01*
X80970511Y-94288849D01*
X80929928Y-94214733D01*
X80870305Y-94161689D01*
X80788611Y-94127601D01*
X80681816Y-94110351D01*
X80663419Y-94108862D01*
X80612033Y-94103815D01*
X80587309Y-94098734D01*
X80585254Y-94092253D01*
X80601875Y-94083005D01*
X80667445Y-94065182D01*
X80751976Y-94066239D01*
G36*
X80751976Y-94066239D02*
G01*
X80833947Y-94089030D01*
X80901625Y-94131652D01*
X80928939Y-94162991D01*
X80963298Y-94220112D01*
X80988080Y-94281229D01*
X80996969Y-94333000D01*
X80995367Y-94353997D01*
X80990578Y-94350987D01*
X80980453Y-94319024D01*
X80970511Y-94288849D01*
X80929928Y-94214733D01*
X80870305Y-94161689D01*
X80788611Y-94127601D01*
X80681816Y-94110351D01*
X80663419Y-94108862D01*
X80612033Y-94103815D01*
X80587309Y-94098734D01*
X80585254Y-94092253D01*
X80601875Y-94083005D01*
X80667445Y-94065182D01*
X80751976Y-94066239D01*
G37*
X93873639Y-101162725D02*
X94013671Y-101163838D01*
X94127102Y-101165607D01*
X94215672Y-101168069D01*
X94281123Y-101171263D01*
X94325193Y-101175224D01*
X94349625Y-101179990D01*
X94397230Y-101206887D01*
X94434244Y-101258403D01*
X94438304Y-101267119D01*
X94454795Y-101335895D01*
X94440311Y-101397713D01*
X94394864Y-101452509D01*
X94347188Y-101492625D01*
X92683250Y-101492625D01*
X92635908Y-101448969D01*
X92603012Y-101409943D01*
X92585965Y-101360252D01*
X92585031Y-101292384D01*
X92593441Y-101265880D01*
X92622799Y-101224860D01*
X92663106Y-101189384D01*
X92703814Y-101170294D01*
X92704606Y-101170167D01*
X92729770Y-101168809D01*
X92783165Y-101167495D01*
X92861575Y-101166257D01*
X92961780Y-101165127D01*
X93080562Y-101164135D01*
X93214703Y-101163313D01*
X93360984Y-101162694D01*
X93516187Y-101162308D01*
X93705266Y-101162233D01*
X93873639Y-101162725D01*
G36*
X93873639Y-101162725D02*
G01*
X94013671Y-101163838D01*
X94127102Y-101165607D01*
X94215672Y-101168069D01*
X94281123Y-101171263D01*
X94325193Y-101175224D01*
X94349625Y-101179990D01*
X94397230Y-101206887D01*
X94434244Y-101258403D01*
X94438304Y-101267119D01*
X94454795Y-101335895D01*
X94440311Y-101397713D01*
X94394864Y-101452509D01*
X94347188Y-101492625D01*
X92683250Y-101492625D01*
X92635908Y-101448969D01*
X92603012Y-101409943D01*
X92585965Y-101360252D01*
X92585031Y-101292384D01*
X92593441Y-101265880D01*
X92622799Y-101224860D01*
X92663106Y-101189384D01*
X92703814Y-101170294D01*
X92704606Y-101170167D01*
X92729770Y-101168809D01*
X92783165Y-101167495D01*
X92861575Y-101166257D01*
X92961780Y-101165127D01*
X93080562Y-101164135D01*
X93214703Y-101163313D01*
X93360984Y-101162694D01*
X93516187Y-101162308D01*
X93705266Y-101162233D01*
X93873639Y-101162725D01*
G37*
X97667500Y-99715633D02*
X97484738Y-99711161D01*
X97301976Y-99706688D01*
X97231489Y-99550111D01*
X97141685Y-99370429D01*
X96996417Y-99138676D01*
X96828021Y-98926854D01*
X96638373Y-98736423D01*
X96429352Y-98568838D01*
X96202834Y-98425559D01*
X95960694Y-98308044D01*
X95704812Y-98217750D01*
X95437062Y-98156135D01*
X95381804Y-98147103D01*
X95309956Y-98137467D01*
X95240437Y-98131566D01*
X95164742Y-98128969D01*
X95074368Y-98129245D01*
X94960812Y-98131962D01*
X94922508Y-98133279D01*
X94709439Y-98148612D01*
X94515910Y-98178262D01*
X94333452Y-98224292D01*
X94153597Y-98288764D01*
X93967875Y-98373741D01*
X93827720Y-98450363D01*
X93610691Y-98595881D01*
X93408749Y-98764908D01*
X93225098Y-98954012D01*
X93062942Y-99159762D01*
X92925486Y-99378725D01*
X92815934Y-99607469D01*
X92772364Y-99714625D01*
X92349375Y-99714625D01*
X92349375Y-94396500D01*
X97667500Y-94396500D01*
X97667500Y-99715633D01*
G36*
X97667500Y-99715633D02*
G01*
X97484738Y-99711161D01*
X97301976Y-99706688D01*
X97231489Y-99550111D01*
X97141685Y-99370429D01*
X96996417Y-99138676D01*
X96828021Y-98926854D01*
X96638373Y-98736423D01*
X96429352Y-98568838D01*
X96202834Y-98425559D01*
X95960694Y-98308044D01*
X95704812Y-98217750D01*
X95437062Y-98156135D01*
X95381804Y-98147103D01*
X95309956Y-98137467D01*
X95240437Y-98131566D01*
X95164742Y-98128969D01*
X95074368Y-98129245D01*
X94960812Y-98131962D01*
X94922508Y-98133279D01*
X94709439Y-98148612D01*
X94515910Y-98178262D01*
X94333452Y-98224292D01*
X94153597Y-98288764D01*
X93967875Y-98373741D01*
X93827720Y-98450363D01*
X93610691Y-98595881D01*
X93408749Y-98764908D01*
X93225098Y-98954012D01*
X93062942Y-99159762D01*
X92925486Y-99378725D01*
X92815934Y-99607469D01*
X92772364Y-99714625D01*
X92349375Y-99714625D01*
X92349375Y-94396500D01*
X97667500Y-94396500D01*
X97667500Y-99715633D01*
G37*
X88622718Y-94276863D02*
X88764441Y-94290549D01*
X89043434Y-94338769D01*
X89306451Y-94414269D01*
X89554166Y-94517357D01*
X89787252Y-94648335D01*
X90006385Y-94807509D01*
X90212238Y-94995184D01*
X90235758Y-95019339D01*
X90414451Y-95228005D01*
X90566795Y-95454096D01*
X90692238Y-95696565D01*
X90790229Y-95954364D01*
X90860216Y-96226447D01*
X90867234Y-96264249D01*
X90887832Y-96427492D01*
X90897429Y-96606292D01*
X90896026Y-96789313D01*
X90883621Y-96965220D01*
X90860216Y-97122679D01*
X90843944Y-97198020D01*
X90775374Y-97439792D01*
X90685099Y-97670566D01*
X90575617Y-97884543D01*
X90449427Y-98075925D01*
X90410408Y-98127913D01*
X90256735Y-97966019D01*
X90153963Y-97861867D01*
X90019601Y-97740135D01*
X89883919Y-97635184D01*
X89738476Y-97540076D01*
X89647043Y-97487497D01*
X89411520Y-97375349D01*
X89164144Y-97290263D01*
X88902136Y-97231385D01*
X88622718Y-97197863D01*
X88475875Y-97187130D01*
X88475875Y-94266130D01*
X88622718Y-94276863D01*
G36*
X88622718Y-94276863D02*
G01*
X88764441Y-94290549D01*
X89043434Y-94338769D01*
X89306451Y-94414269D01*
X89554166Y-94517357D01*
X89787252Y-94648335D01*
X90006385Y-94807509D01*
X90212238Y-94995184D01*
X90235758Y-95019339D01*
X90414451Y-95228005D01*
X90566795Y-95454096D01*
X90692238Y-95696565D01*
X90790229Y-95954364D01*
X90860216Y-96226447D01*
X90867234Y-96264249D01*
X90887832Y-96427492D01*
X90897429Y-96606292D01*
X90896026Y-96789313D01*
X90883621Y-96965220D01*
X90860216Y-97122679D01*
X90843944Y-97198020D01*
X90775374Y-97439792D01*
X90685099Y-97670566D01*
X90575617Y-97884543D01*
X90449427Y-98075925D01*
X90410408Y-98127913D01*
X90256735Y-97966019D01*
X90153963Y-97861867D01*
X90019601Y-97740135D01*
X89883919Y-97635184D01*
X89738476Y-97540076D01*
X89647043Y-97487497D01*
X89411520Y-97375349D01*
X89164144Y-97290263D01*
X88902136Y-97231385D01*
X88622718Y-97197863D01*
X88475875Y-97187130D01*
X88475875Y-94266130D01*
X88622718Y-94276863D01*
G37*
X90422961Y-98160867D02*
X90438172Y-98177144D01*
X90470039Y-98220556D01*
X90510005Y-98281709D01*
X90554299Y-98354358D01*
X90599149Y-98432257D01*
X90640780Y-98509162D01*
X90675422Y-98578825D01*
X90712408Y-98661472D01*
X90794956Y-98884441D01*
X90851951Y-99109613D01*
X90884962Y-99344238D01*
X90895559Y-99595563D01*
X90895094Y-99664081D01*
X90889623Y-99816353D01*
X90876762Y-99951263D01*
X90854970Y-100078759D01*
X90822706Y-100208787D01*
X90778426Y-100351294D01*
X90718777Y-100511520D01*
X90600748Y-100758293D01*
X90458226Y-100986624D01*
X90292897Y-101195216D01*
X90106447Y-101382778D01*
X89900561Y-101548013D01*
X89676925Y-101689629D01*
X89437224Y-101806332D01*
X89183145Y-101896827D01*
X88916373Y-101959820D01*
X88638593Y-101994017D01*
X88475875Y-102005164D01*
X88475875Y-99084312D01*
X88630656Y-99073629D01*
X88701509Y-99067743D01*
X88970041Y-99027156D01*
X89230340Y-98959110D01*
X89479553Y-98864996D01*
X89714825Y-98746206D01*
X89933304Y-98604131D01*
X90132137Y-98440160D01*
X90308470Y-98255686D01*
X90346784Y-98211658D01*
X90383287Y-98174802D01*
X90407531Y-98158823D01*
X90422961Y-98160867D01*
G36*
X90422961Y-98160867D02*
G01*
X90438172Y-98177144D01*
X90470039Y-98220556D01*
X90510005Y-98281709D01*
X90554299Y-98354358D01*
X90599149Y-98432257D01*
X90640780Y-98509162D01*
X90675422Y-98578825D01*
X90712408Y-98661472D01*
X90794956Y-98884441D01*
X90851951Y-99109613D01*
X90884962Y-99344238D01*
X90895559Y-99595563D01*
X90895094Y-99664081D01*
X90889623Y-99816353D01*
X90876762Y-99951263D01*
X90854970Y-100078759D01*
X90822706Y-100208787D01*
X90778426Y-100351294D01*
X90718777Y-100511520D01*
X90600748Y-100758293D01*
X90458226Y-100986624D01*
X90292897Y-101195216D01*
X90106447Y-101382778D01*
X89900561Y-101548013D01*
X89676925Y-101689629D01*
X89437224Y-101806332D01*
X89183145Y-101896827D01*
X88916373Y-101959820D01*
X88638593Y-101994017D01*
X88475875Y-102005164D01*
X88475875Y-99084312D01*
X88630656Y-99073629D01*
X88701509Y-99067743D01*
X88970041Y-99027156D01*
X89230340Y-98959110D01*
X89479553Y-98864996D01*
X89714825Y-98746206D01*
X89933304Y-98604131D01*
X90132137Y-98440160D01*
X90308470Y-98255686D01*
X90346784Y-98211658D01*
X90383287Y-98174802D01*
X90407531Y-98158823D01*
X90422961Y-98160867D01*
G37*
X80993262Y-94432254D02*
X80994143Y-94462889D01*
X80994959Y-94521734D01*
X80995702Y-94606441D01*
X80996362Y-94714657D01*
X80996930Y-94844033D01*
X80997397Y-94992218D01*
X80997751Y-95156861D01*
X80997985Y-95335611D01*
X80998089Y-95526118D01*
X80998053Y-95726032D01*
X80997947Y-95883884D01*
X80997705Y-96098499D01*
X80997335Y-96284409D01*
X80996801Y-96443453D01*
X80996069Y-96577467D01*
X80995105Y-96688287D01*
X80993875Y-96777751D01*
X80992343Y-96847695D01*
X80990476Y-96899957D01*
X80988239Y-96936372D01*
X80985598Y-96958779D01*
X80982518Y-96969013D01*
X80978964Y-96968913D01*
X80974903Y-96960313D01*
X80969184Y-96945504D01*
X80920737Y-96868993D01*
X80849457Y-96811265D01*
X80759307Y-96774772D01*
X80654250Y-96761964D01*
X80633846Y-96761332D01*
X80570339Y-96755203D01*
X80507406Y-96744685D01*
X80427250Y-96727495D01*
X80427250Y-94717442D01*
X80467615Y-94707311D01*
X80479450Y-94704863D01*
X80524109Y-94698084D01*
X80586394Y-94690423D01*
X80656663Y-94683114D01*
X80690107Y-94679614D01*
X80755564Y-94670793D01*
X80807311Y-94661225D01*
X80836370Y-94652443D01*
X80838533Y-94651252D01*
X80880488Y-94618282D01*
X80923595Y-94570352D01*
X80958933Y-94518704D01*
X80977578Y-94474575D01*
X80985867Y-94441868D01*
X80992796Y-94428250D01*
X80993262Y-94432254D01*
G36*
X80993262Y-94432254D02*
G01*
X80994143Y-94462889D01*
X80994959Y-94521734D01*
X80995702Y-94606441D01*
X80996362Y-94714657D01*
X80996930Y-94844033D01*
X80997397Y-94992218D01*
X80997751Y-95156861D01*
X80997985Y-95335611D01*
X80998089Y-95526118D01*
X80998053Y-95726032D01*
X80997947Y-95883884D01*
X80997705Y-96098499D01*
X80997335Y-96284409D01*
X80996801Y-96443453D01*
X80996069Y-96577467D01*
X80995105Y-96688287D01*
X80993875Y-96777751D01*
X80992343Y-96847695D01*
X80990476Y-96899957D01*
X80988239Y-96936372D01*
X80985598Y-96958779D01*
X80982518Y-96969013D01*
X80978964Y-96968913D01*
X80974903Y-96960313D01*
X80969184Y-96945504D01*
X80920737Y-96868993D01*
X80849457Y-96811265D01*
X80759307Y-96774772D01*
X80654250Y-96761964D01*
X80633846Y-96761332D01*
X80570339Y-96755203D01*
X80507406Y-96744685D01*
X80427250Y-96727495D01*
X80427250Y-94717442D01*
X80467615Y-94707311D01*
X80479450Y-94704863D01*
X80524109Y-94698084D01*
X80586394Y-94690423D01*
X80656663Y-94683114D01*
X80690107Y-94679614D01*
X80755564Y-94670793D01*
X80807311Y-94661225D01*
X80836370Y-94652443D01*
X80838533Y-94651252D01*
X80880488Y-94618282D01*
X80923595Y-94570352D01*
X80958933Y-94518704D01*
X80977578Y-94474575D01*
X80985867Y-94441868D01*
X80992796Y-94428250D01*
X80993262Y-94432254D01*
G37*
X96417904Y-100389779D02*
X96480593Y-100427667D01*
X96532437Y-100473959D01*
X96537287Y-100807528D01*
X96542137Y-101141096D01*
X96873622Y-101146205D01*
X97205107Y-101151313D01*
X97253741Y-101197939D01*
X97277600Y-101223517D01*
X97297379Y-101262070D01*
X97302375Y-101314254D01*
X97300954Y-101345797D01*
X97288051Y-101390100D01*
X97255971Y-101430347D01*
X97209567Y-101476750D01*
X96542157Y-101476750D01*
X96537297Y-101809010D01*
X96536767Y-101844339D01*
X96534905Y-101947809D01*
X96532644Y-102025429D01*
X96529523Y-102081779D01*
X96525077Y-102121437D01*
X96518844Y-102148981D01*
X96510362Y-102168990D01*
X96499166Y-102186041D01*
X96482122Y-102205461D01*
X96425344Y-102240989D01*
X96359892Y-102250669D01*
X96295144Y-102232371D01*
X96290439Y-102229724D01*
X96250698Y-102198925D01*
X96224742Y-102165072D01*
X96220944Y-102151746D01*
X96215018Y-102103885D01*
X96210640Y-102027962D01*
X96207929Y-101926355D01*
X96207000Y-101801441D01*
X96207000Y-101476750D01*
X95882309Y-101476750D01*
X95798214Y-101476328D01*
X95692475Y-101474290D01*
X95608645Y-101470707D01*
X95549997Y-101465732D01*
X95519808Y-101459523D01*
X95514113Y-101456652D01*
X95473198Y-101420815D01*
X95441718Y-101369950D01*
X95429125Y-101318732D01*
X95429148Y-101316460D01*
X95444256Y-101256484D01*
X95481615Y-101202201D01*
X95532856Y-101165937D01*
X95536335Y-101164560D01*
X95568320Y-101156285D01*
X95616369Y-101150272D01*
X95684398Y-101146279D01*
X95776321Y-101144061D01*
X95896052Y-101143375D01*
X96205250Y-101143375D01*
X96210093Y-100800659D01*
X96214937Y-100457943D01*
X96259478Y-100419659D01*
X96286796Y-100400419D01*
X96351102Y-100380616D01*
X96417904Y-100389779D01*
G36*
X96417904Y-100389779D02*
G01*
X96480593Y-100427667D01*
X96532437Y-100473959D01*
X96537287Y-100807528D01*
X96542137Y-101141096D01*
X96873622Y-101146205D01*
X97205107Y-101151313D01*
X97253741Y-101197939D01*
X97277600Y-101223517D01*
X97297379Y-101262070D01*
X97302375Y-101314254D01*
X97300954Y-101345797D01*
X97288051Y-101390100D01*
X97255971Y-101430347D01*
X97209567Y-101476750D01*
X96542157Y-101476750D01*
X96537297Y-101809010D01*
X96536767Y-101844339D01*
X96534905Y-101947809D01*
X96532644Y-102025429D01*
X96529523Y-102081779D01*
X96525077Y-102121437D01*
X96518844Y-102148981D01*
X96510362Y-102168990D01*
X96499166Y-102186041D01*
X96482122Y-102205461D01*
X96425344Y-102240989D01*
X96359892Y-102250669D01*
X96295144Y-102232371D01*
X96290439Y-102229724D01*
X96250698Y-102198925D01*
X96224742Y-102165072D01*
X96220944Y-102151746D01*
X96215018Y-102103885D01*
X96210640Y-102027962D01*
X96207929Y-101926355D01*
X96207000Y-101801441D01*
X96207000Y-101476750D01*
X95882309Y-101476750D01*
X95798214Y-101476328D01*
X95692475Y-101474290D01*
X95608645Y-101470707D01*
X95549997Y-101465732D01*
X95519808Y-101459523D01*
X95514113Y-101456652D01*
X95473198Y-101420815D01*
X95441718Y-101369950D01*
X95429125Y-101318732D01*
X95429148Y-101316460D01*
X95444256Y-101256484D01*
X95481615Y-101202201D01*
X95532856Y-101165937D01*
X95536335Y-101164560D01*
X95568320Y-101156285D01*
X95616369Y-101150272D01*
X95684398Y-101146279D01*
X95776321Y-101144061D01*
X95896052Y-101143375D01*
X96205250Y-101143375D01*
X96210093Y-100800659D01*
X96214937Y-100457943D01*
X96259478Y-100419659D01*
X96286796Y-100400419D01*
X96351102Y-100380616D01*
X96417904Y-100389779D01*
G37*
X82721184Y-94087193D02*
X82798548Y-94139542D01*
X82803184Y-94143832D01*
X82817828Y-94157237D01*
X82830681Y-94170213D01*
X82841860Y-94184768D01*
X82851482Y-94202916D01*
X82859663Y-94226667D01*
X82866520Y-94258032D01*
X82872169Y-94299023D01*
X82876727Y-94351651D01*
X82880310Y-94417927D01*
X82883035Y-94499863D01*
X82885018Y-94599470D01*
X82886377Y-94718759D01*
X82887227Y-94859742D01*
X82887685Y-95024429D01*
X82887868Y-95214832D01*
X82887892Y-95432963D01*
X82887875Y-95680832D01*
X82887815Y-95846940D01*
X82887431Y-96109952D01*
X82886685Y-96341786D01*
X82885573Y-96542803D01*
X82884092Y-96713366D01*
X82882236Y-96853834D01*
X82880003Y-96964570D01*
X82877386Y-97045935D01*
X82874384Y-97098291D01*
X82870990Y-97121998D01*
X82834887Y-97186273D01*
X82771538Y-97246964D01*
X82692835Y-97287068D01*
X82606603Y-97301277D01*
X82604095Y-97301252D01*
X82512022Y-97285367D01*
X82433778Y-97242405D01*
X82373204Y-97175381D01*
X82334140Y-97087313D01*
X82331161Y-97063035D01*
X82328220Y-97008797D01*
X82325586Y-96928372D01*
X82323261Y-96824656D01*
X82321244Y-96700547D01*
X82319536Y-96558940D01*
X82318136Y-96402734D01*
X82317044Y-96234824D01*
X82316261Y-96058107D01*
X82315786Y-95875481D01*
X82315619Y-95689842D01*
X82315761Y-95504087D01*
X82316211Y-95321112D01*
X82316970Y-95143815D01*
X82318037Y-94975092D01*
X82319412Y-94817840D01*
X82321096Y-94674955D01*
X82323088Y-94549336D01*
X82325388Y-94443877D01*
X82327997Y-94361477D01*
X82330914Y-94305032D01*
X82334140Y-94277438D01*
X82358382Y-94212850D01*
X82409489Y-94141763D01*
X82481491Y-94093374D01*
X82542727Y-94072042D01*
X82634757Y-94064525D01*
X82721184Y-94087193D01*
G36*
X82721184Y-94087193D02*
G01*
X82798548Y-94139542D01*
X82803184Y-94143832D01*
X82817828Y-94157237D01*
X82830681Y-94170213D01*
X82841860Y-94184768D01*
X82851482Y-94202916D01*
X82859663Y-94226667D01*
X82866520Y-94258032D01*
X82872169Y-94299023D01*
X82876727Y-94351651D01*
X82880310Y-94417927D01*
X82883035Y-94499863D01*
X82885018Y-94599470D01*
X82886377Y-94718759D01*
X82887227Y-94859742D01*
X82887685Y-95024429D01*
X82887868Y-95214832D01*
X82887892Y-95432963D01*
X82887875Y-95680832D01*
X82887815Y-95846940D01*
X82887431Y-96109952D01*
X82886685Y-96341786D01*
X82885573Y-96542803D01*
X82884092Y-96713366D01*
X82882236Y-96853834D01*
X82880003Y-96964570D01*
X82877386Y-97045935D01*
X82874384Y-97098291D01*
X82870990Y-97121998D01*
X82834887Y-97186273D01*
X82771538Y-97246964D01*
X82692835Y-97287068D01*
X82606603Y-97301277D01*
X82604095Y-97301252D01*
X82512022Y-97285367D01*
X82433778Y-97242405D01*
X82373204Y-97175381D01*
X82334140Y-97087313D01*
X82331161Y-97063035D01*
X82328220Y-97008797D01*
X82325586Y-96928372D01*
X82323261Y-96824656D01*
X82321244Y-96700547D01*
X82319536Y-96558940D01*
X82318136Y-96402734D01*
X82317044Y-96234824D01*
X82316261Y-96058107D01*
X82315786Y-95875481D01*
X82315619Y-95689842D01*
X82315761Y-95504087D01*
X82316211Y-95321112D01*
X82316970Y-95143815D01*
X82318037Y-94975092D01*
X82319412Y-94817840D01*
X82321096Y-94674955D01*
X82323088Y-94549336D01*
X82325388Y-94443877D01*
X82327997Y-94361477D01*
X82330914Y-94305032D01*
X82334140Y-94277438D01*
X82358382Y-94212850D01*
X82409489Y-94141763D01*
X82481491Y-94093374D01*
X82542727Y-94072042D01*
X82634757Y-94064525D01*
X82721184Y-94087193D01*
G37*
X100648112Y-94338654D02*
X100863944Y-94361344D01*
X101129771Y-94416321D01*
X101383536Y-94499192D01*
X101623639Y-94608559D01*
X101848479Y-94743026D01*
X102056456Y-94901196D01*
X102245969Y-95081672D01*
X102415419Y-95283058D01*
X102563204Y-95503955D01*
X102687724Y-95742968D01*
X102787379Y-95998698D01*
X102860568Y-96269750D01*
X102871906Y-96332109D01*
X102887032Y-96460088D01*
X102896070Y-96603984D01*
X102898927Y-96754401D01*
X102895506Y-96901942D01*
X102885714Y-97037212D01*
X102869454Y-97150813D01*
X102837619Y-97295059D01*
X102760196Y-97552943D01*
X102659376Y-97791552D01*
X102533599Y-98013853D01*
X102381304Y-98222810D01*
X102200931Y-98421391D01*
X102069772Y-98545338D01*
X101913705Y-98673127D01*
X101753367Y-98781759D01*
X101580687Y-98877166D01*
X101562934Y-98885915D01*
X101491151Y-98919345D01*
X101414241Y-98952728D01*
X101338979Y-98983375D01*
X101272136Y-99008596D01*
X101220487Y-99025701D01*
X101190803Y-99032001D01*
X101190308Y-99031654D01*
X101187144Y-99011493D01*
X101184315Y-98961451D01*
X101181848Y-98883157D01*
X101179769Y-98778237D01*
X101178105Y-98648319D01*
X101176884Y-98495032D01*
X101176131Y-98320002D01*
X101175875Y-98124856D01*
X101175875Y-97217712D01*
X101013673Y-97228883D01*
X100983196Y-97231172D01*
X100860784Y-97243654D01*
X100738591Y-97260720D01*
X100627129Y-97280757D01*
X100536906Y-97302150D01*
X100477375Y-97318993D01*
X100477375Y-99131870D01*
X100671843Y-99122290D01*
X100742475Y-99117701D01*
X100833048Y-99109140D01*
X100915266Y-99098675D01*
X100977437Y-99087633D01*
X101038326Y-99073963D01*
X101094575Y-99061459D01*
X101132218Y-99053232D01*
X101175875Y-99043907D01*
X101175875Y-100530702D01*
X101175864Y-100658906D01*
X101175764Y-100897475D01*
X101175537Y-101107029D01*
X101175153Y-101289404D01*
X101174584Y-101446434D01*
X101173800Y-101579955D01*
X101172773Y-101691803D01*
X101171473Y-101783811D01*
X101169873Y-101857816D01*
X101167942Y-101915652D01*
X101165652Y-101959155D01*
X101162975Y-101990159D01*
X101159881Y-102010500D01*
X101156341Y-102022013D01*
X101152326Y-102026533D01*
X101130793Y-102029579D01*
X101080516Y-102028960D01*
X101010586Y-102024030D01*
X100927486Y-102015547D01*
X100837696Y-102004266D01*
X100747696Y-101990946D01*
X100663968Y-101976342D01*
X100592994Y-101961212D01*
X100580589Y-101958171D01*
X100314947Y-101876817D01*
X100065321Y-101769249D01*
X99833063Y-101637174D01*
X99619522Y-101482300D01*
X99426049Y-101306333D01*
X99253992Y-101110980D01*
X99104702Y-100897946D01*
X98979529Y-100668939D01*
X98879822Y-100425666D01*
X98806932Y-100169833D01*
X98762208Y-99903146D01*
X98747000Y-99627313D01*
X98762123Y-99353336D01*
X98806879Y-99086577D01*
X98879953Y-98830076D01*
X98980034Y-98585708D01*
X99105810Y-98355346D01*
X99255969Y-98140863D01*
X99429197Y-97944133D01*
X99624182Y-97767029D01*
X99839613Y-97611426D01*
X100074177Y-97479196D01*
X100326562Y-97372214D01*
X100469437Y-97320874D01*
X100473487Y-95824517D01*
X100477537Y-94328159D01*
X100648112Y-94338654D01*
G36*
X100648112Y-94338654D02*
G01*
X100863944Y-94361344D01*
X101129771Y-94416321D01*
X101383536Y-94499192D01*
X101623639Y-94608559D01*
X101848479Y-94743026D01*
X102056456Y-94901196D01*
X102245969Y-95081672D01*
X102415419Y-95283058D01*
X102563204Y-95503955D01*
X102687724Y-95742968D01*
X102787379Y-95998698D01*
X102860568Y-96269750D01*
X102871906Y-96332109D01*
X102887032Y-96460088D01*
X102896070Y-96603984D01*
X102898927Y-96754401D01*
X102895506Y-96901942D01*
X102885714Y-97037212D01*
X102869454Y-97150813D01*
X102837619Y-97295059D01*
X102760196Y-97552943D01*
X102659376Y-97791552D01*
X102533599Y-98013853D01*
X102381304Y-98222810D01*
X102200931Y-98421391D01*
X102069772Y-98545338D01*
X101913705Y-98673127D01*
X101753367Y-98781759D01*
X101580687Y-98877166D01*
X101562934Y-98885915D01*
X101491151Y-98919345D01*
X101414241Y-98952728D01*
X101338979Y-98983375D01*
X101272136Y-99008596D01*
X101220487Y-99025701D01*
X101190803Y-99032001D01*
X101190308Y-99031654D01*
X101187144Y-99011493D01*
X101184315Y-98961451D01*
X101181848Y-98883157D01*
X101179769Y-98778237D01*
X101178105Y-98648319D01*
X101176884Y-98495032D01*
X101176131Y-98320002D01*
X101175875Y-98124856D01*
X101175875Y-97217712D01*
X101013673Y-97228883D01*
X100983196Y-97231172D01*
X100860784Y-97243654D01*
X100738591Y-97260720D01*
X100627129Y-97280757D01*
X100536906Y-97302150D01*
X100477375Y-97318993D01*
X100477375Y-99131870D01*
X100671843Y-99122290D01*
X100742475Y-99117701D01*
X100833048Y-99109140D01*
X100915266Y-99098675D01*
X100977437Y-99087633D01*
X101038326Y-99073963D01*
X101094575Y-99061459D01*
X101132218Y-99053232D01*
X101175875Y-99043907D01*
X101175875Y-100530702D01*
X101175864Y-100658906D01*
X101175764Y-100897475D01*
X101175537Y-101107029D01*
X101175153Y-101289404D01*
X101174584Y-101446434D01*
X101173800Y-101579955D01*
X101172773Y-101691803D01*
X101171473Y-101783811D01*
X101169873Y-101857816D01*
X101167942Y-101915652D01*
X101165652Y-101959155D01*
X101162975Y-101990159D01*
X101159881Y-102010500D01*
X101156341Y-102022013D01*
X101152326Y-102026533D01*
X101130793Y-102029579D01*
X101080516Y-102028960D01*
X101010586Y-102024030D01*
X100927486Y-102015547D01*
X100837696Y-102004266D01*
X100747696Y-101990946D01*
X100663968Y-101976342D01*
X100592994Y-101961212D01*
X100580589Y-101958171D01*
X100314947Y-101876817D01*
X100065321Y-101769249D01*
X99833063Y-101637174D01*
X99619522Y-101482300D01*
X99426049Y-101306333D01*
X99253992Y-101110980D01*
X99104702Y-100897946D01*
X98979529Y-100668939D01*
X98879822Y-100425666D01*
X98806932Y-100169833D01*
X98762208Y-99903146D01*
X98747000Y-99627313D01*
X98762123Y-99353336D01*
X98806879Y-99086577D01*
X98879953Y-98830076D01*
X98980034Y-98585708D01*
X99105810Y-98355346D01*
X99255969Y-98140863D01*
X99429197Y-97944133D01*
X99624182Y-97767029D01*
X99839613Y-97611426D01*
X100074177Y-97479196D01*
X100326562Y-97372214D01*
X100469437Y-97320874D01*
X100473487Y-95824517D01*
X100477537Y-94328159D01*
X100648112Y-94338654D01*
G37*
X80508865Y-94128251D02*
X80517079Y-94135125D01*
X80501753Y-94154988D01*
X80497348Y-94159969D01*
X80468918Y-94200729D01*
X80448891Y-94250285D01*
X80436069Y-94314325D01*
X80429255Y-94398535D01*
X80427250Y-94508602D01*
X80427249Y-94517964D01*
X80426964Y-94599943D01*
X80425572Y-94655966D01*
X80422206Y-94691324D01*
X80416000Y-94711304D01*
X80406087Y-94721198D01*
X80391602Y-94726295D01*
X80383120Y-94729008D01*
X80344746Y-94744632D01*
X80290375Y-94769343D01*
X80228884Y-94799165D01*
X80178255Y-94827167D01*
X80063607Y-94908644D01*
X79954586Y-95009034D01*
X79859696Y-95119975D01*
X79787445Y-95233105D01*
X79750943Y-95309939D01*
X79693482Y-95481401D01*
X79666524Y-95654935D01*
X79669634Y-95827699D01*
X79702378Y-95996848D01*
X79764322Y-96159541D01*
X79855030Y-96312933D01*
X79974068Y-96454180D01*
X80005496Y-96485448D01*
X80065219Y-96540469D01*
X80120761Y-96582699D01*
X80183279Y-96620079D01*
X80263931Y-96660555D01*
X80426049Y-96738063D01*
X80426649Y-97025705D01*
X80427250Y-97313346D01*
X80486781Y-97323186D01*
X80518571Y-97327729D01*
X80611580Y-97334129D01*
X80702427Y-97331588D01*
X80781528Y-97320681D01*
X80839295Y-97301985D01*
X80892346Y-97266052D01*
X80949857Y-97199419D01*
X80983627Y-97121211D01*
X80984823Y-97124258D01*
X80986456Y-97154372D01*
X80988040Y-97212749D01*
X80989555Y-97297361D01*
X80990985Y-97406182D01*
X80992312Y-97537183D01*
X80993519Y-97688337D01*
X80994587Y-97857615D01*
X80995499Y-98042990D01*
X80996238Y-98242434D01*
X80996786Y-98453919D01*
X80997125Y-98675418D01*
X80998750Y-100279398D01*
X80963031Y-100350102D01*
X80961295Y-100353485D01*
X80907568Y-100426327D01*
X80838354Y-100475765D01*
X80759590Y-100501614D01*
X80677214Y-100503691D01*
X80597165Y-100481811D01*
X80525379Y-100435791D01*
X80467795Y-100365447D01*
X80464607Y-100359884D01*
X80459496Y-100349514D01*
X80454992Y-100336757D01*
X80451047Y-100319654D01*
X80447608Y-100296249D01*
X80444624Y-100264584D01*
X80442044Y-100222701D01*
X80439818Y-100168644D01*
X80437893Y-100100454D01*
X80436220Y-100016174D01*
X80434747Y-99913846D01*
X80433423Y-99791514D01*
X80432197Y-99647220D01*
X80431017Y-99479006D01*
X80429834Y-99284915D01*
X80428595Y-99062989D01*
X80427250Y-98811270D01*
X80419312Y-97312603D01*
X80292312Y-97278350D01*
X80216861Y-97256254D01*
X80009209Y-97175377D01*
X79821347Y-97070696D01*
X79778013Y-97040191D01*
X79690104Y-96968956D01*
X79597784Y-96884379D01*
X79508815Y-96794119D01*
X79430954Y-96705834D01*
X79371962Y-96627183D01*
X79289655Y-96488581D01*
X79197802Y-96284169D01*
X79135058Y-96072718D01*
X79101609Y-95857022D01*
X79097640Y-95639875D01*
X79123337Y-95424074D01*
X79178884Y-95212413D01*
X79264468Y-95007688D01*
X79312568Y-94918760D01*
X79438833Y-94732041D01*
X79587844Y-94566325D01*
X79757618Y-94423157D01*
X79946172Y-94304084D01*
X80151522Y-94210651D01*
X80371687Y-94144405D01*
X80379909Y-94142585D01*
X80434602Y-94132977D01*
X80481304Y-94128220D01*
X80508865Y-94128251D01*
G36*
X80508865Y-94128251D02*
G01*
X80517079Y-94135125D01*
X80501753Y-94154988D01*
X80497348Y-94159969D01*
X80468918Y-94200729D01*
X80448891Y-94250285D01*
X80436069Y-94314325D01*
X80429255Y-94398535D01*
X80427250Y-94508602D01*
X80427249Y-94517964D01*
X80426964Y-94599943D01*
X80425572Y-94655966D01*
X80422206Y-94691324D01*
X80416000Y-94711304D01*
X80406087Y-94721198D01*
X80391602Y-94726295D01*
X80383120Y-94729008D01*
X80344746Y-94744632D01*
X80290375Y-94769343D01*
X80228884Y-94799165D01*
X80178255Y-94827167D01*
X80063607Y-94908644D01*
X79954586Y-95009034D01*
X79859696Y-95119975D01*
X79787445Y-95233105D01*
X79750943Y-95309939D01*
X79693482Y-95481401D01*
X79666524Y-95654935D01*
X79669634Y-95827699D01*
X79702378Y-95996848D01*
X79764322Y-96159541D01*
X79855030Y-96312933D01*
X79974068Y-96454180D01*
X80005496Y-96485448D01*
X80065219Y-96540469D01*
X80120761Y-96582699D01*
X80183279Y-96620079D01*
X80263931Y-96660555D01*
X80426049Y-96738063D01*
X80426649Y-97025705D01*
X80427250Y-97313346D01*
X80486781Y-97323186D01*
X80518571Y-97327729D01*
X80611580Y-97334129D01*
X80702427Y-97331588D01*
X80781528Y-97320681D01*
X80839295Y-97301985D01*
X80892346Y-97266052D01*
X80949857Y-97199419D01*
X80983627Y-97121211D01*
X80984823Y-97124258D01*
X80986456Y-97154372D01*
X80988040Y-97212749D01*
X80989555Y-97297361D01*
X80990985Y-97406182D01*
X80992312Y-97537183D01*
X80993519Y-97688337D01*
X80994587Y-97857615D01*
X80995499Y-98042990D01*
X80996238Y-98242434D01*
X80996786Y-98453919D01*
X80997125Y-98675418D01*
X80998750Y-100279398D01*
X80963031Y-100350102D01*
X80961295Y-100353485D01*
X80907568Y-100426327D01*
X80838354Y-100475765D01*
X80759590Y-100501614D01*
X80677214Y-100503691D01*
X80597165Y-100481811D01*
X80525379Y-100435791D01*
X80467795Y-100365447D01*
X80464607Y-100359884D01*
X80459496Y-100349514D01*
X80454992Y-100336757D01*
X80451047Y-100319654D01*
X80447608Y-100296249D01*
X80444624Y-100264584D01*
X80442044Y-100222701D01*
X80439818Y-100168644D01*
X80437893Y-100100454D01*
X80436220Y-100016174D01*
X80434747Y-99913846D01*
X80433423Y-99791514D01*
X80432197Y-99647220D01*
X80431017Y-99479006D01*
X80429834Y-99284915D01*
X80428595Y-99062989D01*
X80427250Y-98811270D01*
X80419312Y-97312603D01*
X80292312Y-97278350D01*
X80216861Y-97256254D01*
X80009209Y-97175377D01*
X79821347Y-97070696D01*
X79778013Y-97040191D01*
X79690104Y-96968956D01*
X79597784Y-96884379D01*
X79508815Y-96794119D01*
X79430954Y-96705834D01*
X79371962Y-96627183D01*
X79289655Y-96488581D01*
X79197802Y-96284169D01*
X79135058Y-96072718D01*
X79101609Y-95857022D01*
X79097640Y-95639875D01*
X79123337Y-95424074D01*
X79178884Y-95212413D01*
X79264468Y-95007688D01*
X79312568Y-94918760D01*
X79438833Y-94732041D01*
X79587844Y-94566325D01*
X79757618Y-94423157D01*
X79946172Y-94304084D01*
X80151522Y-94210651D01*
X80371687Y-94144405D01*
X80379909Y-94142585D01*
X80434602Y-94132977D01*
X80481304Y-94128220D01*
X80508865Y-94128251D01*
G37*
X84397357Y-91785961D02*
X84471300Y-91843996D01*
X84478606Y-91857485D01*
X84497433Y-91899386D01*
X84526453Y-91967497D01*
X84564934Y-92059961D01*
X84612143Y-92174921D01*
X84667345Y-92310522D01*
X84729810Y-92464907D01*
X84798802Y-92636221D01*
X84873591Y-92822606D01*
X84953442Y-93022207D01*
X85037622Y-93233168D01*
X85125399Y-93453632D01*
X85216039Y-93681742D01*
X85308810Y-93915644D01*
X85402978Y-94153481D01*
X85497811Y-94393395D01*
X85592575Y-94633532D01*
X85686538Y-94872035D01*
X85778966Y-95107048D01*
X85869127Y-95336714D01*
X85956287Y-95559178D01*
X86039713Y-95772583D01*
X86118674Y-95975073D01*
X86192434Y-96164792D01*
X86260262Y-96339883D01*
X86321424Y-96498490D01*
X86375188Y-96638758D01*
X86420821Y-96758829D01*
X86457588Y-96856848D01*
X86484759Y-96930959D01*
X86501598Y-96979304D01*
X86507375Y-97000029D01*
X86506995Y-97010433D01*
X86493757Y-97074877D01*
X86466376Y-97142376D01*
X86431363Y-97196130D01*
X86408592Y-97216620D01*
X86350751Y-97250550D01*
X86283452Y-97275504D01*
X86221019Y-97285402D01*
X86168768Y-97277622D01*
X86101682Y-97252355D01*
X86039937Y-97215853D01*
X85996712Y-97174625D01*
X85989031Y-97158672D01*
X85970510Y-97115588D01*
X85942650Y-97048749D01*
X85906670Y-96961195D01*
X85863786Y-96855967D01*
X85815214Y-96736107D01*
X85762173Y-96604655D01*
X85705879Y-96464653D01*
X85647549Y-96319142D01*
X85588401Y-96171162D01*
X85529652Y-96023754D01*
X85472518Y-95879961D01*
X85418216Y-95742822D01*
X85367964Y-95615379D01*
X85322980Y-95500673D01*
X85284479Y-95401744D01*
X85253679Y-95321634D01*
X85231797Y-95263385D01*
X85223724Y-95247025D01*
X85213111Y-95240973D01*
X85212281Y-95242529D01*
X85202425Y-95266230D01*
X85182523Y-95316384D01*
X85153543Y-95390482D01*
X85116457Y-95486012D01*
X85072236Y-95600463D01*
X85021850Y-95731324D01*
X84966270Y-95876085D01*
X84906467Y-96032234D01*
X84843411Y-96197261D01*
X84810312Y-96283977D01*
X84738461Y-96471938D01*
X84676435Y-96633259D01*
X84623182Y-96770076D01*
X84577648Y-96884523D01*
X84538782Y-96978736D01*
X84505530Y-97054849D01*
X84476841Y-97114998D01*
X84451660Y-97161317D01*
X84428937Y-97195943D01*
X84407617Y-97221010D01*
X84386650Y-97238652D01*
X84364980Y-97251006D01*
X84341557Y-97260207D01*
X84315328Y-97268388D01*
X84250623Y-97279649D01*
X84158945Y-97270271D01*
X84074900Y-97232696D01*
X84040518Y-97202717D01*
X83995744Y-97140840D01*
X83963655Y-97069135D01*
X83951184Y-97000606D01*
X83952059Y-96993819D01*
X83962273Y-96956339D01*
X83983720Y-96890458D01*
X84016103Y-96796991D01*
X84059126Y-96676753D01*
X84112493Y-96530558D01*
X84175907Y-96359222D01*
X84249071Y-96163560D01*
X84331689Y-95944386D01*
X84423465Y-95702515D01*
X84469009Y-95582927D01*
X84539201Y-95399009D01*
X84605704Y-95225219D01*
X84667680Y-95063730D01*
X84724286Y-94916715D01*
X84774682Y-94786348D01*
X84818028Y-94674802D01*
X84853481Y-94584250D01*
X84880202Y-94516867D01*
X84897349Y-94474824D01*
X84904082Y-94460297D01*
X84910643Y-94471924D01*
X84927386Y-94509482D01*
X84952541Y-94569213D01*
X84984495Y-94647224D01*
X85021636Y-94739620D01*
X85062352Y-94842510D01*
X85212603Y-95225019D01*
X85238393Y-95163979D01*
X85238619Y-95163443D01*
X85268230Y-95090969D01*
X85301416Y-95005884D01*
X85336293Y-94913465D01*
X85370975Y-94818986D01*
X85403578Y-94727723D01*
X85432216Y-94644951D01*
X85455006Y-94575946D01*
X85470062Y-94525982D01*
X85475500Y-94500336D01*
X85474587Y-94485044D01*
X85459042Y-94422682D01*
X85429174Y-94357315D01*
X85391398Y-94303928D01*
X85378492Y-94291110D01*
X85308349Y-94245554D01*
X85227790Y-94223615D01*
X85143905Y-94224473D01*
X85063785Y-94247310D01*
X84994521Y-94291309D01*
X84943203Y-94355650D01*
X84936161Y-94368288D01*
X84915946Y-94399770D01*
X84903287Y-94412375D01*
X84902354Y-94411119D01*
X84891976Y-94388485D01*
X84871160Y-94339183D01*
X84840805Y-94265446D01*
X84801808Y-94169509D01*
X84755068Y-94053603D01*
X84701484Y-93919963D01*
X84641955Y-93770822D01*
X84577380Y-93608412D01*
X84508656Y-93434969D01*
X84436683Y-93252724D01*
X84377880Y-93103549D01*
X84301612Y-92909846D01*
X84235770Y-92742171D01*
X84179606Y-92598453D01*
X84132371Y-92476620D01*
X84093318Y-92374602D01*
X84061699Y-92290327D01*
X84036767Y-92221725D01*
X84017772Y-92166725D01*
X84003969Y-92123255D01*
X83994608Y-92089245D01*
X83988942Y-92062623D01*
X83986223Y-92041319D01*
X83985704Y-92023262D01*
X83986636Y-92006380D01*
X83992924Y-91963778D01*
X84025865Y-91881036D01*
X84084190Y-91817216D01*
X84167113Y-91773336D01*
X84220966Y-91758989D01*
X84312949Y-91757402D01*
X84397357Y-91785961D01*
G36*
X84397357Y-91785961D02*
G01*
X84471300Y-91843996D01*
X84478606Y-91857485D01*
X84497433Y-91899386D01*
X84526453Y-91967497D01*
X84564934Y-92059961D01*
X84612143Y-92174921D01*
X84667345Y-92310522D01*
X84729810Y-92464907D01*
X84798802Y-92636221D01*
X84873591Y-92822606D01*
X84953442Y-93022207D01*
X85037622Y-93233168D01*
X85125399Y-93453632D01*
X85216039Y-93681742D01*
X85308810Y-93915644D01*
X85402978Y-94153481D01*
X85497811Y-94393395D01*
X85592575Y-94633532D01*
X85686538Y-94872035D01*
X85778966Y-95107048D01*
X85869127Y-95336714D01*
X85956287Y-95559178D01*
X86039713Y-95772583D01*
X86118674Y-95975073D01*
X86192434Y-96164792D01*
X86260262Y-96339883D01*
X86321424Y-96498490D01*
X86375188Y-96638758D01*
X86420821Y-96758829D01*
X86457588Y-96856848D01*
X86484759Y-96930959D01*
X86501598Y-96979304D01*
X86507375Y-97000029D01*
X86506995Y-97010433D01*
X86493757Y-97074877D01*
X86466376Y-97142376D01*
X86431363Y-97196130D01*
X86408592Y-97216620D01*
X86350751Y-97250550D01*
X86283452Y-97275504D01*
X86221019Y-97285402D01*
X86168768Y-97277622D01*
X86101682Y-97252355D01*
X86039937Y-97215853D01*
X85996712Y-97174625D01*
X85989031Y-97158672D01*
X85970510Y-97115588D01*
X85942650Y-97048749D01*
X85906670Y-96961195D01*
X85863786Y-96855967D01*
X85815214Y-96736107D01*
X85762173Y-96604655D01*
X85705879Y-96464653D01*
X85647549Y-96319142D01*
X85588401Y-96171162D01*
X85529652Y-96023754D01*
X85472518Y-95879961D01*
X85418216Y-95742822D01*
X85367964Y-95615379D01*
X85322980Y-95500673D01*
X85284479Y-95401744D01*
X85253679Y-95321634D01*
X85231797Y-95263385D01*
X85223724Y-95247025D01*
X85213111Y-95240973D01*
X85212281Y-95242529D01*
X85202425Y-95266230D01*
X85182523Y-95316384D01*
X85153543Y-95390482D01*
X85116457Y-95486012D01*
X85072236Y-95600463D01*
X85021850Y-95731324D01*
X84966270Y-95876085D01*
X84906467Y-96032234D01*
X84843411Y-96197261D01*
X84810312Y-96283977D01*
X84738461Y-96471938D01*
X84676435Y-96633259D01*
X84623182Y-96770076D01*
X84577648Y-96884523D01*
X84538782Y-96978736D01*
X84505530Y-97054849D01*
X84476841Y-97114998D01*
X84451660Y-97161317D01*
X84428937Y-97195943D01*
X84407617Y-97221010D01*
X84386650Y-97238652D01*
X84364980Y-97251006D01*
X84341557Y-97260207D01*
X84315328Y-97268388D01*
X84250623Y-97279649D01*
X84158945Y-97270271D01*
X84074900Y-97232696D01*
X84040518Y-97202717D01*
X83995744Y-97140840D01*
X83963655Y-97069135D01*
X83951184Y-97000606D01*
X83952059Y-96993819D01*
X83962273Y-96956339D01*
X83983720Y-96890458D01*
X84016103Y-96796991D01*
X84059126Y-96676753D01*
X84112493Y-96530558D01*
X84175907Y-96359222D01*
X84249071Y-96163560D01*
X84331689Y-95944386D01*
X84423465Y-95702515D01*
X84469009Y-95582927D01*
X84539201Y-95399009D01*
X84605704Y-95225219D01*
X84667680Y-95063730D01*
X84724286Y-94916715D01*
X84774682Y-94786348D01*
X84818028Y-94674802D01*
X84853481Y-94584250D01*
X84880202Y-94516867D01*
X84897349Y-94474824D01*
X84904082Y-94460297D01*
X84910643Y-94471924D01*
X84927386Y-94509482D01*
X84952541Y-94569213D01*
X84984495Y-94647224D01*
X85021636Y-94739620D01*
X85062352Y-94842510D01*
X85212603Y-95225019D01*
X85238393Y-95163979D01*
X85238619Y-95163443D01*
X85268230Y-95090969D01*
X85301416Y-95005884D01*
X85336293Y-94913465D01*
X85370975Y-94818986D01*
X85403578Y-94727723D01*
X85432216Y-94644951D01*
X85455006Y-94575946D01*
X85470062Y-94525982D01*
X85475500Y-94500336D01*
X85474587Y-94485044D01*
X85459042Y-94422682D01*
X85429174Y-94357315D01*
X85391398Y-94303928D01*
X85378492Y-94291110D01*
X85308349Y-94245554D01*
X85227790Y-94223615D01*
X85143905Y-94224473D01*
X85063785Y-94247310D01*
X84994521Y-94291309D01*
X84943203Y-94355650D01*
X84936161Y-94368288D01*
X84915946Y-94399770D01*
X84903287Y-94412375D01*
X84902354Y-94411119D01*
X84891976Y-94388485D01*
X84871160Y-94339183D01*
X84840805Y-94265446D01*
X84801808Y-94169509D01*
X84755068Y-94053603D01*
X84701484Y-93919963D01*
X84641955Y-93770822D01*
X84577380Y-93608412D01*
X84508656Y-93434969D01*
X84436683Y-93252724D01*
X84377880Y-93103549D01*
X84301612Y-92909846D01*
X84235770Y-92742171D01*
X84179606Y-92598453D01*
X84132371Y-92476620D01*
X84093318Y-92374602D01*
X84061699Y-92290327D01*
X84036767Y-92221725D01*
X84017772Y-92166725D01*
X84003969Y-92123255D01*
X83994608Y-92089245D01*
X83988942Y-92062623D01*
X83986223Y-92041319D01*
X83985704Y-92023262D01*
X83986636Y-92006380D01*
X83992924Y-91963778D01*
X84025865Y-91881036D01*
X84084190Y-91817216D01*
X84167113Y-91773336D01*
X84220966Y-91758989D01*
X84312949Y-91757402D01*
X84397357Y-91785961D01*
G37*
G04 #@! TD*
%LPC*%
D15*
G04 #@! TO.C,BAT-*
X177400000Y-100000000D03*
X177826275Y-97856973D03*
X177826275Y-102143027D03*
X179040203Y-96040203D03*
X179040203Y-103959797D03*
X180856973Y-94826275D03*
X180856973Y-105173725D03*
X183000000Y-94400000D03*
D16*
X183000000Y-100000000D03*
D15*
X183000000Y-105600000D03*
X185143027Y-94826275D03*
X185143027Y-105173725D03*
X186959797Y-96040203D03*
X186959797Y-103959797D03*
X188173725Y-97856973D03*
X188173725Y-102143027D03*
X188600000Y-100000000D03*
G04 #@! TD*
D17*
G04 #@! TO.C,UPDI1*
X86000000Y-93500000D03*
D18*
X88540000Y-93500000D03*
X91080000Y-93500000D03*
G04 #@! TD*
D15*
G04 #@! TO.C,BAT+*
X54400000Y-100000000D03*
X54826275Y-97856973D03*
X54826275Y-102143027D03*
X56040203Y-96040203D03*
X56040203Y-103959797D03*
X57856973Y-94826275D03*
X57856973Y-105173725D03*
X60000000Y-94400000D03*
D16*
X60000000Y-100000000D03*
D15*
X60000000Y-105600000D03*
X62143027Y-94826275D03*
X62143027Y-105173725D03*
X63959797Y-96040203D03*
X63959797Y-103959797D03*
X65173725Y-97856973D03*
X65173725Y-102143027D03*
X65600000Y-100000000D03*
G04 #@! TD*
%LPD*%
M02*
