M48
; DRILL file {KiCad 7.0.11+dfsg-1build4} date Thu Oct  8 20:40:16 2026
; FORMAT={-:-/ absolute / metric / decimal}
; #@! TF.CreationDate,2026-10-08T20:40:16+02:00
; #@! TF.GenerationSoftware,Kicad,Pcbnew,7.0.11+dfsg-1build4
; #@! TF.FileFunction,Plated,1,2,PTH
FMAT,2
METRIC
; #@! TA.AperFunction,Plated,PTH,ViaDrill
T1C0.350
; #@! TA.AperFunction,Plated,PTH,ComponentDrill
T2C0.600
; #@! TA.AperFunction,Plated,PTH,ComponentDrill
T3C1.000
; #@! TA.AperFunction,Plated,PTH,ComponentDrill
T4C6.300
%
G90
G05
T1
X73.236Y-106.911
X75.822Y-104.217
X75.992Y-102.869
X83.957Y-93.406
X86.217Y-100.52
X87.06Y-103.354
X89.75Y-102.496
X90.893Y-103.114
X93.321Y-103.566
X94.188Y-110.001
X94.835Y-103.806
X94.891Y-102.765
X97.087Y-106.794
X98.033Y-95.221
X98.438Y-93.104
X100.728Y-100.436
X100.871Y-103.354
X101.346Y-107.144
X103.286Y-95.371
X104.0Y-103.455
X104.256Y-96.076
X106.0Y-99.501
X107.803Y-110.219
X110.287Y-111.368
X111.228Y-110.367
X161.99Y-111.243
X165.116Y-97.486
X166.48Y-93.397
T2
X54.4Y-100.0
X54.826Y-97.857
X54.826Y-102.143
X56.04Y-96.04
X56.04Y-103.96
X57.857Y-94.826
X57.857Y-105.174
X60.0Y-94.4
X60.0Y-105.6
X62.143Y-94.826
X62.143Y-105.174
X63.96Y-96.04
X63.96Y-103.96
X65.174Y-97.857
X65.174Y-102.143
X65.6Y-100.0
X177.4Y-100.0
X177.826Y-97.857
X177.826Y-102.143
X179.04Y-96.04
X179.04Y-103.96
X180.857Y-94.826
X180.857Y-105.174
X183.0Y-94.4
X183.0Y-105.6
X185.143Y-94.826
X185.143Y-105.174
X186.96Y-96.04
X186.96Y-103.96
X188.174Y-97.857
X188.174Y-102.143
X188.6Y-100.0
T3
X86.0Y-93.5
X88.54Y-93.5
X91.08Y-93.5
T4
X60.0Y-100.0
X183.0Y-100.0
M30
